%TF.GenerationSoftware,KiCad,Pcbnew,(6.0.10)*%
%TF.CreationDate,2023-01-13T11:07:08+01:00*%
%TF.ProjectId,SiemensSimaticS7ExpansionBoard,5369656d-656e-4735-9369-6d6174696353,rev?*%
%TF.SameCoordinates,Original*%
%TF.FileFunction,Legend,Top*%
%TF.FilePolarity,Positive*%
%FSLAX46Y46*%
G04 Gerber Fmt 4.6, Leading zero omitted, Abs format (unit mm)*
G04 Created by KiCad (PCBNEW (6.0.10)) date 2023-01-13 11:07:08*
%MOMM*%
%LPD*%
G01*
G04 APERTURE LIST*
%ADD10C,0.300000*%
%ADD11C,0.000000*%
%ADD12C,0.120000*%
%ADD13C,1.562000*%
%ADD14R,2.600000X2.600000*%
%ADD15C,2.600000*%
%ADD16R,1.600000X6.500000*%
G04 APERTURE END LIST*
D10*
X193335774Y-119938800D02*
G75*
G03*
X192065774Y-118668800I-1270000J0D01*
G01*
X192091174Y-136592174D02*
X124002800Y-136592174D01*
X124002800Y-118668800D02*
X192065774Y-118668800D01*
X122732800Y-135322174D02*
X122732800Y-119938800D01*
X122732800Y-135322174D02*
G75*
G03*
X124002800Y-136592174I1270000J0D01*
G01*
X124002800Y-118668800D02*
G75*
G03*
X122732800Y-119938800I0J-1270000D01*
G01*
X193335774Y-119938800D02*
X193361174Y-135322174D01*
X192091174Y-136592174D02*
G75*
G03*
X193361174Y-135322174I0J1270000D01*
G01*
X193284974Y-100965000D02*
X193310374Y-116348374D01*
X123952000Y-99695000D02*
X192014974Y-99695000D01*
X122682000Y-116348374D02*
X122682000Y-100965000D01*
X192040374Y-117618374D02*
X123952000Y-117618374D01*
X192040374Y-117618374D02*
G75*
G03*
X193310374Y-116348374I0J1270000D01*
G01*
X122682000Y-116348374D02*
G75*
G03*
X123952000Y-117618374I1270000J0D01*
G01*
X193284974Y-100965000D02*
G75*
G03*
X192014974Y-99695000I-1270000J0D01*
G01*
X123952000Y-99695000D02*
G75*
G03*
X122682000Y-100965000I0J-1270000D01*
G01*
D11*
G36*
X166497000Y-120142000D02*
G01*
X165100000Y-118745000D01*
X166497000Y-118618000D01*
X166497000Y-120142000D01*
G37*
G36*
X149479000Y-120142000D02*
G01*
X149479000Y-118745000D01*
X150749000Y-118745000D01*
X149479000Y-120142000D01*
G37*
G36*
X166497000Y-101092000D02*
G01*
X165354000Y-99695000D01*
X166497000Y-99695000D01*
X166497000Y-101092000D01*
G37*
G36*
X149479000Y-101092000D02*
G01*
X149479000Y-99695000D01*
X150495000Y-99695000D01*
X149479000Y-101092000D01*
G37*
%TO.C,kibuzzard-63C11CE2*%
G36*
X190456871Y-122276410D02*
G01*
X190728776Y-122358892D01*
X190979365Y-122492834D01*
X191199008Y-122673091D01*
X191379265Y-122892734D01*
X191513207Y-123143323D01*
X191595689Y-123415228D01*
X191623539Y-123698000D01*
X191595689Y-123980772D01*
X191513207Y-124252677D01*
X191379265Y-124503266D01*
X191199008Y-124722909D01*
X190979365Y-124903166D01*
X190728776Y-125037108D01*
X190456871Y-125119590D01*
X190174099Y-125147440D01*
X188505901Y-125147440D01*
X188223129Y-125119590D01*
X187951224Y-125037108D01*
X187700635Y-124903166D01*
X187480992Y-124722909D01*
X187300735Y-124503266D01*
X187166793Y-124252677D01*
X187084311Y-123980772D01*
X187056461Y-123698000D01*
X187084311Y-123415228D01*
X187166793Y-123143323D01*
X187300735Y-122892734D01*
X187342746Y-122841544D01*
X188506245Y-122841544D01*
X189579395Y-122841544D01*
X189464857Y-123045339D01*
X189344128Y-123285250D01*
X189224946Y-123550958D01*
X189115051Y-123832144D01*
X189017539Y-124122617D01*
X188935505Y-124416185D01*
X188876688Y-124703562D01*
X188848828Y-124975461D01*
X189364765Y-124975461D01*
X189402428Y-124644745D01*
X189474144Y-124312998D01*
X189570108Y-123990537D01*
X189680519Y-123687681D01*
X189801764Y-123410107D01*
X189930233Y-123163489D01*
X190057153Y-122958146D01*
X190173755Y-122804396D01*
X190173755Y-122420539D01*
X188506245Y-122420539D01*
X188506245Y-122841544D01*
X187342746Y-122841544D01*
X187480992Y-122673091D01*
X187700635Y-122492834D01*
X187951224Y-122358892D01*
X188223129Y-122276410D01*
X188505901Y-122248560D01*
X190174099Y-122248560D01*
X190456871Y-122276410D01*
G37*
%TO.C,kibuzzard-63C11CC1*%
G36*
X163547676Y-122276410D02*
G01*
X163819581Y-122358892D01*
X164070170Y-122492834D01*
X164289813Y-122673091D01*
X164470070Y-122892734D01*
X164604012Y-123143323D01*
X164686494Y-123415228D01*
X164714344Y-123698000D01*
X164686494Y-123980772D01*
X164604012Y-124252677D01*
X164470070Y-124503266D01*
X164289813Y-124722909D01*
X164070170Y-124903166D01*
X163819581Y-125037108D01*
X163547676Y-125119590D01*
X163264904Y-125147440D01*
X161415096Y-125147440D01*
X161132324Y-125119590D01*
X160860419Y-125037108D01*
X160609830Y-124903166D01*
X160390187Y-124722909D01*
X160209930Y-124503266D01*
X160140219Y-124372846D01*
X161415440Y-124372846D01*
X162480335Y-124372846D01*
X162480335Y-124975461D01*
X162988018Y-124975461D01*
X162988018Y-124372846D01*
X163264560Y-124372846D01*
X163264560Y-123955969D01*
X162988018Y-123955969D01*
X162988018Y-122420539D01*
X162533993Y-122420539D01*
X162368893Y-122596473D01*
X162203793Y-122794077D01*
X162042820Y-123004064D01*
X161890103Y-123217146D01*
X161747704Y-123429197D01*
X161617688Y-123636087D01*
X161505213Y-123829564D01*
X161415440Y-124001371D01*
X161415440Y-124372846D01*
X160140219Y-124372846D01*
X160075988Y-124252677D01*
X159993506Y-123980772D01*
X159965656Y-123698000D01*
X159993506Y-123415228D01*
X160075988Y-123143323D01*
X160209930Y-122892734D01*
X160390187Y-122673091D01*
X160609830Y-122492834D01*
X160860419Y-122358892D01*
X161132324Y-122276410D01*
X161415096Y-122248560D01*
X163264904Y-122248560D01*
X163547676Y-122276410D01*
G37*
G36*
X162480335Y-123955969D02*
G01*
X161902485Y-123955969D01*
X162026310Y-123720701D01*
X162172836Y-123483370D01*
X162327618Y-123258421D01*
X162480335Y-123056174D01*
X162480335Y-123955969D01*
G37*
%TO.C,kibuzzard-63C11CBB*%
G36*
X145493464Y-122248073D02*
G01*
X145770789Y-122332198D01*
X146026373Y-122468811D01*
X146250394Y-122652661D01*
X146434244Y-122876682D01*
X146570857Y-123132266D01*
X146654982Y-123409592D01*
X146683388Y-123698000D01*
X146654982Y-123986408D01*
X146570857Y-124263734D01*
X146434244Y-124519318D01*
X146250394Y-124743339D01*
X146026373Y-124927189D01*
X145770789Y-125063802D01*
X145493464Y-125147927D01*
X145205055Y-125176333D01*
X143474945Y-125176333D01*
X143186536Y-125147927D01*
X142909211Y-125063802D01*
X142653627Y-124927189D01*
X142429606Y-124743339D01*
X142245756Y-124519318D01*
X142109143Y-124263734D01*
X142025018Y-123986408D01*
X141996612Y-123698000D01*
X142025018Y-123409592D01*
X142109143Y-123132266D01*
X142245756Y-122876682D01*
X142366052Y-122730101D01*
X143475289Y-122730101D01*
X143727066Y-123085066D01*
X143987099Y-122891074D01*
X144238876Y-122833289D01*
X144478271Y-122917902D01*
X144573204Y-123159361D01*
X144496845Y-123378119D01*
X144302853Y-123601004D01*
X144181091Y-123719153D01*
X144051075Y-123842463D01*
X143921059Y-123973511D01*
X143799298Y-124114878D01*
X143691983Y-124268111D01*
X143605305Y-124434759D01*
X143548036Y-124616369D01*
X143528946Y-124814489D01*
X143526883Y-124901166D01*
X143537201Y-125004354D01*
X145204711Y-125004354D01*
X145204711Y-124583349D01*
X144106796Y-124583349D01*
X144150135Y-124447141D01*
X144255386Y-124300615D01*
X144387466Y-124160280D01*
X144511291Y-124042646D01*
X144721794Y-123836271D01*
X144907531Y-123613386D01*
X145039611Y-123376055D01*
X145089141Y-123122214D01*
X145023101Y-122802332D01*
X144845619Y-122573256D01*
X144589714Y-122437049D01*
X144288406Y-122391646D01*
X144073260Y-122412284D01*
X143857083Y-122474196D01*
X143653287Y-122579447D01*
X143475289Y-122730101D01*
X142366052Y-122730101D01*
X142429606Y-122652661D01*
X142653627Y-122468811D01*
X142909211Y-122332198D01*
X143186536Y-122248073D01*
X143474945Y-122219667D01*
X145205055Y-122219667D01*
X145493464Y-122248073D01*
G37*
%TO.C,kibuzzard-63C11CB4*%
G36*
X136471317Y-122276410D02*
G01*
X136743222Y-122358892D01*
X136993811Y-122492834D01*
X137213454Y-122673091D01*
X137393711Y-122892734D01*
X137527654Y-123143323D01*
X137610135Y-123415228D01*
X137637986Y-123698000D01*
X137610135Y-123980772D01*
X137527654Y-124252677D01*
X137393711Y-124503266D01*
X137213454Y-124722909D01*
X136993811Y-124903166D01*
X136743222Y-125037108D01*
X136471317Y-125119590D01*
X136188545Y-125147440D01*
X134491455Y-125147440D01*
X134208683Y-125119590D01*
X133936778Y-125037108D01*
X133686189Y-124903166D01*
X133466546Y-124722909D01*
X133286289Y-124503266D01*
X133152346Y-124252677D01*
X133069865Y-123980772D01*
X133042014Y-123698000D01*
X133069865Y-123415228D01*
X133152346Y-123143323D01*
X133254084Y-122952986D01*
X134491799Y-122952986D01*
X134656899Y-123373991D01*
X134908676Y-123272867D01*
X135172836Y-123126341D01*
X135172836Y-124554456D01*
X134636261Y-124554456D01*
X134636261Y-124975461D01*
X136188201Y-124975461D01*
X136188201Y-124554456D01*
X135680519Y-124554456D01*
X135680519Y-122420539D01*
X135333809Y-122420539D01*
X135156326Y-122581511D01*
X134937569Y-122730101D01*
X134706429Y-122858054D01*
X134491799Y-122952986D01*
X133254084Y-122952986D01*
X133286289Y-122892734D01*
X133466546Y-122673091D01*
X133686189Y-122492834D01*
X133936778Y-122358892D01*
X134208683Y-122276410D01*
X134491455Y-122248560D01*
X136188545Y-122248560D01*
X136471317Y-122276410D01*
G37*
%TO.C,kibuzzard-63C11C98*%
G36*
X154480124Y-122221760D02*
G01*
X154762482Y-122307412D01*
X155022704Y-122446504D01*
X155250791Y-122633690D01*
X155437978Y-122861777D01*
X155577069Y-123122000D01*
X155662722Y-123404358D01*
X155691643Y-123698000D01*
X155662722Y-123991642D01*
X155577069Y-124274000D01*
X155437978Y-124534223D01*
X155250791Y-124762310D01*
X155022704Y-124949496D01*
X154762482Y-125088588D01*
X154480124Y-125174240D01*
X154186481Y-125203162D01*
X152493519Y-125203162D01*
X152199876Y-125174240D01*
X151917518Y-125088588D01*
X151657296Y-124949496D01*
X151585833Y-124890848D01*
X152493863Y-124890848D01*
X152621815Y-124936250D01*
X152801361Y-124981653D01*
X153003609Y-125016736D01*
X153203793Y-125031183D01*
X153442156Y-125016220D01*
X153645435Y-124971334D01*
X153814663Y-124899103D01*
X153950870Y-124802106D01*
X154128353Y-124544138D01*
X154186138Y-124218065D01*
X154158793Y-124010658D01*
X154076759Y-123834208D01*
X153945195Y-123692841D01*
X153769260Y-123590685D01*
X154000400Y-123376055D01*
X154087078Y-123083002D01*
X154037548Y-122798205D01*
X153884830Y-122569129D01*
X153622734Y-122418475D01*
X153449895Y-122378232D01*
X153249195Y-122364817D01*
X153029922Y-122383907D01*
X152834381Y-122441176D01*
X152539265Y-122591830D01*
X152720875Y-122963305D01*
X152966461Y-122845671D01*
X153253323Y-122798205D01*
X153486526Y-122878691D01*
X153571140Y-123099512D01*
X153531929Y-123256357D01*
X153430805Y-123355417D01*
X153290470Y-123409075D01*
X153133625Y-123425585D01*
X152943760Y-123425585D01*
X152943760Y-123846590D01*
X153100605Y-123846590D01*
X153326586Y-123866712D01*
X153509228Y-123927076D01*
X153629957Y-124038003D01*
X153670200Y-124209810D01*
X153564949Y-124486353D01*
X153421002Y-124569934D01*
X153199665Y-124597795D01*
X153004125Y-124586444D01*
X152838509Y-124552393D01*
X152592923Y-124465715D01*
X152493863Y-124890848D01*
X151585833Y-124890848D01*
X151429209Y-124762310D01*
X151242022Y-124534223D01*
X151102931Y-124274000D01*
X151017278Y-123991642D01*
X150988357Y-123698000D01*
X151017278Y-123404358D01*
X151102931Y-123122000D01*
X151242022Y-122861777D01*
X151429209Y-122633690D01*
X151657296Y-122446504D01*
X151917518Y-122307412D01*
X152199876Y-122221760D01*
X152493519Y-122192838D01*
X154186481Y-122192838D01*
X154480124Y-122221760D01*
G37*
%TO.C,kibuzzard-63C11CDA*%
G36*
X181474034Y-122242001D02*
G01*
X181752521Y-122326479D01*
X182009175Y-122463663D01*
X182234135Y-122648283D01*
X182418754Y-122873243D01*
X182555939Y-123129897D01*
X182640417Y-123408384D01*
X182668942Y-123698000D01*
X182640417Y-123987616D01*
X182555939Y-124266103D01*
X182418754Y-124522757D01*
X182234135Y-124747717D01*
X182009175Y-124932337D01*
X181752521Y-125069521D01*
X181474034Y-125153999D01*
X181184418Y-125182524D01*
X179495582Y-125182524D01*
X179205966Y-125153999D01*
X178927480Y-125069521D01*
X178670825Y-124932337D01*
X178445865Y-124747717D01*
X178261246Y-124522757D01*
X178124061Y-124266103D01*
X178039583Y-123987616D01*
X178032197Y-123912630D01*
X179495926Y-123912630D01*
X179520921Y-124256359D01*
X179595904Y-124533589D01*
X179720875Y-124744321D01*
X179893542Y-124892223D01*
X180111612Y-124980965D01*
X180375084Y-125010545D01*
X180571140Y-124990423D01*
X180738304Y-124930059D01*
X180990081Y-124721620D01*
X181136608Y-124440950D01*
X181184074Y-124139643D01*
X181140735Y-123825953D01*
X180998336Y-123565920D01*
X180744495Y-123388437D01*
X180572688Y-123338907D01*
X180366829Y-123322397D01*
X180234749Y-123340971D01*
X180082031Y-123392565D01*
X180224430Y-123124277D01*
X180453506Y-122948859D01*
X180742431Y-122851862D01*
X181064376Y-122818842D01*
X181035484Y-122385455D01*
X180704252Y-122410220D01*
X180403976Y-122484515D01*
X180139816Y-122607308D01*
X179916931Y-122777567D01*
X179737901Y-122994261D01*
X179605305Y-123256357D01*
X179523271Y-123562824D01*
X179495926Y-123912630D01*
X178032197Y-123912630D01*
X178011058Y-123698000D01*
X178039583Y-123408384D01*
X178124061Y-123129897D01*
X178261246Y-122873243D01*
X178445865Y-122648283D01*
X178670825Y-122463663D01*
X178927480Y-122326479D01*
X179205966Y-122242001D01*
X179495582Y-122213476D01*
X181184418Y-122213476D01*
X181474034Y-122242001D01*
G37*
G36*
X180483431Y-123769715D02*
G01*
X180602096Y-123848654D01*
X180688774Y-124147898D01*
X180670200Y-124292360D01*
X180612415Y-124428568D01*
X180511291Y-124531755D01*
X180362701Y-124573030D01*
X180183155Y-124521436D01*
X180069649Y-124383165D01*
X180011864Y-124187109D01*
X179995354Y-123958033D01*
X179997418Y-123879610D01*
X180003609Y-123805315D01*
X180139816Y-123759913D01*
X180300789Y-123743403D01*
X180483431Y-123769715D01*
G37*
%TO.C,kibuzzard-63C11CC9*%
G36*
X172478615Y-122250097D02*
G01*
X172755553Y-122334105D01*
X173010780Y-122470527D01*
X173234489Y-122654120D01*
X173418082Y-122877829D01*
X173554504Y-123133056D01*
X173638512Y-123409994D01*
X173666878Y-123698000D01*
X173638512Y-123986006D01*
X173554504Y-124262944D01*
X173418082Y-124518171D01*
X173234489Y-124741880D01*
X173010780Y-124925473D01*
X172755553Y-125061895D01*
X172478615Y-125145903D01*
X172190609Y-125174269D01*
X170489391Y-125174269D01*
X170201385Y-125145903D01*
X169924447Y-125061895D01*
X169669220Y-124925473D01*
X169601882Y-124870210D01*
X170489735Y-124870210D01*
X170607369Y-124915613D01*
X170778660Y-124958951D01*
X170976780Y-124989908D01*
X171179027Y-125002290D01*
X171415327Y-124986812D01*
X171620670Y-124940378D01*
X171795057Y-124866083D01*
X171938487Y-124767023D01*
X172128352Y-124504926D01*
X172190265Y-124176790D01*
X172162290Y-123937395D01*
X172078364Y-123736523D01*
X171938487Y-123574175D01*
X171741743Y-123451267D01*
X171487214Y-123368717D01*
X171174900Y-123326525D01*
X171195537Y-123091257D01*
X171216175Y-122814715D01*
X172095332Y-122814715D01*
X172095332Y-122393710D01*
X170791042Y-122393710D01*
X170775564Y-122708948D01*
X170753895Y-123035536D01*
X170725002Y-123371412D01*
X170687855Y-123714510D01*
X170971621Y-123723281D01*
X171195537Y-123749594D01*
X171494781Y-123848654D01*
X171635116Y-124001371D01*
X171670200Y-124197428D01*
X171649562Y-124333635D01*
X171573204Y-124451269D01*
X171420486Y-124535883D01*
X171174900Y-124568903D01*
X170981939Y-124559616D01*
X170824062Y-124531755D01*
X170592922Y-124449205D01*
X170489735Y-124870210D01*
X169601882Y-124870210D01*
X169445511Y-124741880D01*
X169261918Y-124518171D01*
X169125496Y-124262944D01*
X169041488Y-123986006D01*
X169013122Y-123698000D01*
X169041488Y-123409994D01*
X169125496Y-123133056D01*
X169261918Y-122877829D01*
X169445511Y-122654120D01*
X169669220Y-122470527D01*
X169924447Y-122334105D01*
X170201385Y-122250097D01*
X170489391Y-122221731D01*
X172190609Y-122221731D01*
X172478615Y-122250097D01*
G37*
%TO.C,kibuzzard-63C11C89*%
G36*
X127495999Y-122221760D02*
G01*
X127778357Y-122307412D01*
X128038579Y-122446504D01*
X128266666Y-122633690D01*
X128453853Y-122861777D01*
X128592944Y-123122000D01*
X128678597Y-123404358D01*
X128707518Y-123698000D01*
X128678597Y-123991642D01*
X128592944Y-124274000D01*
X128453853Y-124534223D01*
X128266666Y-124762310D01*
X128038579Y-124949496D01*
X127778357Y-125088588D01*
X127495999Y-125174240D01*
X127202356Y-125203162D01*
X125426844Y-125203162D01*
X125133201Y-125174240D01*
X124850843Y-125088588D01*
X124590621Y-124949496D01*
X124362534Y-124762310D01*
X124175347Y-124534223D01*
X124036256Y-124274000D01*
X123950603Y-123991642D01*
X123921682Y-123698000D01*
X123922089Y-123693872D01*
X125427188Y-123693872D01*
X125441376Y-124010658D01*
X125483941Y-124284105D01*
X125554882Y-124514213D01*
X125654200Y-124700983D01*
X125828472Y-124884427D01*
X126048606Y-124994494D01*
X126314600Y-125031183D01*
X126580594Y-124994494D01*
X126800728Y-124884427D01*
X126975000Y-124700983D01*
X127074318Y-124514213D01*
X127145259Y-124284105D01*
X127187824Y-124010658D01*
X127202013Y-123693872D01*
X127187824Y-123379022D01*
X127145259Y-123107252D01*
X127074318Y-122878562D01*
X126975000Y-122692954D01*
X126800728Y-122510656D01*
X126580594Y-122401277D01*
X126314600Y-122364817D01*
X126052733Y-122401506D01*
X125833976Y-122511573D01*
X125658328Y-122695017D01*
X125557204Y-122881271D01*
X125484973Y-123109831D01*
X125441634Y-123380698D01*
X125427188Y-123693872D01*
X123922089Y-123693872D01*
X123950603Y-123404358D01*
X124036256Y-123122000D01*
X124175347Y-122861777D01*
X124362534Y-122633690D01*
X124590621Y-122446504D01*
X124850843Y-122307412D01*
X125133201Y-122221760D01*
X125426844Y-122192838D01*
X127202356Y-122192838D01*
X127495999Y-122221760D01*
G37*
G36*
X126731707Y-123964682D02*
G01*
X126695247Y-124188255D01*
X126634481Y-124364591D01*
X126499822Y-124536398D01*
X126314600Y-124593668D01*
X126131958Y-124536398D01*
X125996783Y-124364591D01*
X125934870Y-124188255D01*
X125897723Y-123964682D01*
X125885340Y-123693872D01*
X125887243Y-123652597D01*
X126087588Y-123652597D01*
X126149500Y-123844526D01*
X126318728Y-123925013D01*
X126481764Y-123844526D01*
X126545740Y-123652597D01*
X126481764Y-123458605D01*
X126318728Y-123376055D01*
X126149500Y-123458605D01*
X126087588Y-123652597D01*
X125887243Y-123652597D01*
X125897723Y-123425356D01*
X125934870Y-123203159D01*
X125996783Y-123027281D01*
X126131958Y-122855474D01*
X126314600Y-122798205D01*
X126499822Y-122855474D01*
X126634481Y-123027281D01*
X126695247Y-123203159D01*
X126731707Y-123425356D01*
X126743860Y-123693872D01*
X126731707Y-123964682D01*
G37*
%TO.C,kibuzzard-63C11CE2*%
G36*
X190507271Y-103226410D02*
G01*
X190779176Y-103308892D01*
X191029765Y-103442834D01*
X191249408Y-103623091D01*
X191429665Y-103842734D01*
X191563607Y-104093323D01*
X191646089Y-104365228D01*
X191673939Y-104648000D01*
X191646089Y-104930772D01*
X191563607Y-105202677D01*
X191429665Y-105453266D01*
X191249408Y-105672909D01*
X191029765Y-105853166D01*
X190779176Y-105987108D01*
X190507271Y-106069590D01*
X190224499Y-106097440D01*
X188556301Y-106097440D01*
X188273529Y-106069590D01*
X188001624Y-105987108D01*
X187751035Y-105853166D01*
X187531392Y-105672909D01*
X187351135Y-105453266D01*
X187217193Y-105202677D01*
X187134711Y-104930772D01*
X187106861Y-104648000D01*
X187134711Y-104365228D01*
X187217193Y-104093323D01*
X187351135Y-103842734D01*
X187393146Y-103791544D01*
X188556645Y-103791544D01*
X189629795Y-103791544D01*
X189515257Y-103995339D01*
X189394528Y-104235250D01*
X189275346Y-104500958D01*
X189165451Y-104782144D01*
X189067939Y-105072617D01*
X188985905Y-105366185D01*
X188927088Y-105653562D01*
X188899228Y-105925461D01*
X189415165Y-105925461D01*
X189452828Y-105594745D01*
X189524544Y-105262998D01*
X189620508Y-104940537D01*
X189730919Y-104637681D01*
X189852164Y-104360107D01*
X189980633Y-104113489D01*
X190107553Y-103908146D01*
X190224155Y-103754396D01*
X190224155Y-103370539D01*
X188556645Y-103370539D01*
X188556645Y-103791544D01*
X187393146Y-103791544D01*
X187531392Y-103623091D01*
X187751035Y-103442834D01*
X188001624Y-103308892D01*
X188273529Y-103226410D01*
X188556301Y-103198560D01*
X190224499Y-103198560D01*
X190507271Y-103226410D01*
G37*
%TO.C,kibuzzard-63C11CDA*%
G36*
X181524434Y-103192001D02*
G01*
X181802921Y-103276479D01*
X182059575Y-103413663D01*
X182284535Y-103598283D01*
X182469154Y-103823243D01*
X182606339Y-104079897D01*
X182690817Y-104358384D01*
X182719342Y-104648000D01*
X182690817Y-104937616D01*
X182606339Y-105216103D01*
X182469154Y-105472757D01*
X182284535Y-105697717D01*
X182059575Y-105882337D01*
X181802921Y-106019521D01*
X181524434Y-106103999D01*
X181234818Y-106132524D01*
X179545982Y-106132524D01*
X179256366Y-106103999D01*
X178977880Y-106019521D01*
X178721225Y-105882337D01*
X178496265Y-105697717D01*
X178311646Y-105472757D01*
X178174461Y-105216103D01*
X178089983Y-104937616D01*
X178082597Y-104862630D01*
X179546326Y-104862630D01*
X179571321Y-105206359D01*
X179646304Y-105483589D01*
X179771275Y-105694321D01*
X179943942Y-105842223D01*
X180162012Y-105930965D01*
X180425484Y-105960545D01*
X180621540Y-105940423D01*
X180788704Y-105880059D01*
X181040481Y-105671620D01*
X181187008Y-105390950D01*
X181234474Y-105089643D01*
X181191135Y-104775953D01*
X181048736Y-104515920D01*
X180794895Y-104338437D01*
X180623088Y-104288907D01*
X180417229Y-104272397D01*
X180285149Y-104290971D01*
X180132431Y-104342565D01*
X180274830Y-104074277D01*
X180503906Y-103898859D01*
X180792831Y-103801862D01*
X181114776Y-103768842D01*
X181085884Y-103335455D01*
X180754652Y-103360220D01*
X180454376Y-103434515D01*
X180190216Y-103557308D01*
X179967331Y-103727567D01*
X179788301Y-103944261D01*
X179655705Y-104206357D01*
X179573671Y-104512824D01*
X179546326Y-104862630D01*
X178082597Y-104862630D01*
X178061458Y-104648000D01*
X178089983Y-104358384D01*
X178174461Y-104079897D01*
X178311646Y-103823243D01*
X178496265Y-103598283D01*
X178721225Y-103413663D01*
X178977880Y-103276479D01*
X179256366Y-103192001D01*
X179545982Y-103163476D01*
X181234818Y-103163476D01*
X181524434Y-103192001D01*
G37*
G36*
X180533831Y-104719715D02*
G01*
X180652496Y-104798654D01*
X180739174Y-105097898D01*
X180720600Y-105242360D01*
X180662815Y-105378568D01*
X180561691Y-105481755D01*
X180413101Y-105523030D01*
X180233555Y-105471436D01*
X180120049Y-105333165D01*
X180062264Y-105137109D01*
X180045754Y-104908033D01*
X180047818Y-104829610D01*
X180054009Y-104755315D01*
X180190216Y-104709913D01*
X180351189Y-104693403D01*
X180533831Y-104719715D01*
G37*
%TO.C,kibuzzard-63C11CC9*%
G36*
X172529015Y-103200097D02*
G01*
X172805953Y-103284105D01*
X173061180Y-103420527D01*
X173284889Y-103604120D01*
X173468482Y-103827829D01*
X173604904Y-104083056D01*
X173688912Y-104359994D01*
X173717278Y-104648000D01*
X173688912Y-104936006D01*
X173604904Y-105212944D01*
X173468482Y-105468171D01*
X173284889Y-105691880D01*
X173061180Y-105875473D01*
X172805953Y-106011895D01*
X172529015Y-106095903D01*
X172241009Y-106124269D01*
X170539791Y-106124269D01*
X170251785Y-106095903D01*
X169974847Y-106011895D01*
X169719620Y-105875473D01*
X169652282Y-105820210D01*
X170540135Y-105820210D01*
X170657769Y-105865613D01*
X170829060Y-105908951D01*
X171027180Y-105939908D01*
X171229427Y-105952290D01*
X171465727Y-105936812D01*
X171671070Y-105890378D01*
X171845457Y-105816083D01*
X171988887Y-105717023D01*
X172178752Y-105454926D01*
X172240665Y-105126790D01*
X172212690Y-104887395D01*
X172128764Y-104686523D01*
X171988887Y-104524175D01*
X171792143Y-104401267D01*
X171537614Y-104318717D01*
X171225300Y-104276525D01*
X171245937Y-104041257D01*
X171266575Y-103764715D01*
X172145732Y-103764715D01*
X172145732Y-103343710D01*
X170841442Y-103343710D01*
X170825964Y-103658948D01*
X170804295Y-103985536D01*
X170775402Y-104321412D01*
X170738255Y-104664510D01*
X171022021Y-104673281D01*
X171245937Y-104699594D01*
X171545181Y-104798654D01*
X171685516Y-104951371D01*
X171720600Y-105147428D01*
X171699962Y-105283635D01*
X171623604Y-105401269D01*
X171470886Y-105485883D01*
X171225300Y-105518903D01*
X171032339Y-105509616D01*
X170874462Y-105481755D01*
X170643322Y-105399205D01*
X170540135Y-105820210D01*
X169652282Y-105820210D01*
X169495911Y-105691880D01*
X169312318Y-105468171D01*
X169175896Y-105212944D01*
X169091888Y-104936006D01*
X169063522Y-104648000D01*
X169091888Y-104359994D01*
X169175896Y-104083056D01*
X169312318Y-103827829D01*
X169495911Y-103604120D01*
X169719620Y-103420527D01*
X169974847Y-103284105D01*
X170251785Y-103200097D01*
X170539791Y-103171731D01*
X172241009Y-103171731D01*
X172529015Y-103200097D01*
G37*
%TO.C,kibuzzard-63C11CC1*%
G36*
X163598076Y-103226410D02*
G01*
X163869981Y-103308892D01*
X164120570Y-103442834D01*
X164340213Y-103623091D01*
X164520470Y-103842734D01*
X164654412Y-104093323D01*
X164736894Y-104365228D01*
X164764744Y-104648000D01*
X164736894Y-104930772D01*
X164654412Y-105202677D01*
X164520470Y-105453266D01*
X164340213Y-105672909D01*
X164120570Y-105853166D01*
X163869981Y-105987108D01*
X163598076Y-106069590D01*
X163315304Y-106097440D01*
X161465496Y-106097440D01*
X161182724Y-106069590D01*
X160910819Y-105987108D01*
X160660230Y-105853166D01*
X160440587Y-105672909D01*
X160260330Y-105453266D01*
X160190619Y-105322846D01*
X161465840Y-105322846D01*
X162530735Y-105322846D01*
X162530735Y-105925461D01*
X163038418Y-105925461D01*
X163038418Y-105322846D01*
X163314960Y-105322846D01*
X163314960Y-104905969D01*
X163038418Y-104905969D01*
X163038418Y-103370539D01*
X162584393Y-103370539D01*
X162419293Y-103546473D01*
X162254193Y-103744077D01*
X162093220Y-103954064D01*
X161940503Y-104167146D01*
X161798104Y-104379197D01*
X161668088Y-104586087D01*
X161555613Y-104779564D01*
X161465840Y-104951371D01*
X161465840Y-105322846D01*
X160190619Y-105322846D01*
X160126388Y-105202677D01*
X160043906Y-104930772D01*
X160016056Y-104648000D01*
X160043906Y-104365228D01*
X160126388Y-104093323D01*
X160260330Y-103842734D01*
X160440587Y-103623091D01*
X160660230Y-103442834D01*
X160910819Y-103308892D01*
X161182724Y-103226410D01*
X161465496Y-103198560D01*
X163315304Y-103198560D01*
X163598076Y-103226410D01*
G37*
G36*
X162530735Y-104905969D02*
G01*
X161952885Y-104905969D01*
X162076710Y-104670701D01*
X162223236Y-104433370D01*
X162378018Y-104208421D01*
X162530735Y-104006174D01*
X162530735Y-104905969D01*
G37*
%TO.C,kibuzzard-63C11CBB*%
G36*
X145543864Y-103198073D02*
G01*
X145821189Y-103282198D01*
X146076773Y-103418811D01*
X146300794Y-103602661D01*
X146484644Y-103826682D01*
X146621257Y-104082266D01*
X146705382Y-104359592D01*
X146733788Y-104648000D01*
X146705382Y-104936408D01*
X146621257Y-105213734D01*
X146484644Y-105469318D01*
X146300794Y-105693339D01*
X146076773Y-105877189D01*
X145821189Y-106013802D01*
X145543864Y-106097927D01*
X145255455Y-106126333D01*
X143525345Y-106126333D01*
X143236936Y-106097927D01*
X142959611Y-106013802D01*
X142704027Y-105877189D01*
X142480006Y-105693339D01*
X142296156Y-105469318D01*
X142159543Y-105213734D01*
X142075418Y-104936408D01*
X142047012Y-104648000D01*
X142075418Y-104359592D01*
X142159543Y-104082266D01*
X142296156Y-103826682D01*
X142416452Y-103680101D01*
X143525689Y-103680101D01*
X143777466Y-104035066D01*
X144037499Y-103841074D01*
X144289276Y-103783289D01*
X144528671Y-103867902D01*
X144623604Y-104109361D01*
X144547245Y-104328119D01*
X144353253Y-104551004D01*
X144231491Y-104669153D01*
X144101475Y-104792463D01*
X143971459Y-104923511D01*
X143849698Y-105064878D01*
X143742383Y-105218111D01*
X143655705Y-105384759D01*
X143598436Y-105566369D01*
X143579346Y-105764489D01*
X143577283Y-105851166D01*
X143587601Y-105954354D01*
X145255111Y-105954354D01*
X145255111Y-105533349D01*
X144157196Y-105533349D01*
X144200535Y-105397141D01*
X144305786Y-105250615D01*
X144437866Y-105110280D01*
X144561691Y-104992646D01*
X144772194Y-104786271D01*
X144957931Y-104563386D01*
X145090011Y-104326055D01*
X145139541Y-104072214D01*
X145073501Y-103752332D01*
X144896019Y-103523256D01*
X144640114Y-103387049D01*
X144338806Y-103341646D01*
X144123660Y-103362284D01*
X143907483Y-103424196D01*
X143703687Y-103529447D01*
X143525689Y-103680101D01*
X142416452Y-103680101D01*
X142480006Y-103602661D01*
X142704027Y-103418811D01*
X142959611Y-103282198D01*
X143236936Y-103198073D01*
X143525345Y-103169667D01*
X145255455Y-103169667D01*
X145543864Y-103198073D01*
G37*
%TO.C,kibuzzard-63C11CB4*%
G36*
X136521717Y-103226410D02*
G01*
X136793622Y-103308892D01*
X137044211Y-103442834D01*
X137263854Y-103623091D01*
X137444111Y-103842734D01*
X137578054Y-104093323D01*
X137660535Y-104365228D01*
X137688386Y-104648000D01*
X137660535Y-104930772D01*
X137578054Y-105202677D01*
X137444111Y-105453266D01*
X137263854Y-105672909D01*
X137044211Y-105853166D01*
X136793622Y-105987108D01*
X136521717Y-106069590D01*
X136238945Y-106097440D01*
X134541855Y-106097440D01*
X134259083Y-106069590D01*
X133987178Y-105987108D01*
X133736589Y-105853166D01*
X133516946Y-105672909D01*
X133336689Y-105453266D01*
X133202746Y-105202677D01*
X133120265Y-104930772D01*
X133092414Y-104648000D01*
X133120265Y-104365228D01*
X133202746Y-104093323D01*
X133304484Y-103902986D01*
X134542199Y-103902986D01*
X134707299Y-104323991D01*
X134959076Y-104222867D01*
X135223236Y-104076341D01*
X135223236Y-105504456D01*
X134686661Y-105504456D01*
X134686661Y-105925461D01*
X136238601Y-105925461D01*
X136238601Y-105504456D01*
X135730919Y-105504456D01*
X135730919Y-103370539D01*
X135384209Y-103370539D01*
X135206726Y-103531511D01*
X134987969Y-103680101D01*
X134756829Y-103808054D01*
X134542199Y-103902986D01*
X133304484Y-103902986D01*
X133336689Y-103842734D01*
X133516946Y-103623091D01*
X133736589Y-103442834D01*
X133987178Y-103308892D01*
X134259083Y-103226410D01*
X134541855Y-103198560D01*
X136238945Y-103198560D01*
X136521717Y-103226410D01*
G37*
%TO.C,kibuzzard-63C11C98*%
G36*
X154530524Y-103171760D02*
G01*
X154812882Y-103257412D01*
X155073104Y-103396504D01*
X155301191Y-103583690D01*
X155488378Y-103811777D01*
X155627469Y-104072000D01*
X155713122Y-104354358D01*
X155742043Y-104648000D01*
X155713122Y-104941642D01*
X155627469Y-105224000D01*
X155488378Y-105484223D01*
X155301191Y-105712310D01*
X155073104Y-105899496D01*
X154812882Y-106038588D01*
X154530524Y-106124240D01*
X154236881Y-106153162D01*
X152543919Y-106153162D01*
X152250276Y-106124240D01*
X151967918Y-106038588D01*
X151707696Y-105899496D01*
X151636233Y-105840848D01*
X152544263Y-105840848D01*
X152672215Y-105886250D01*
X152851761Y-105931653D01*
X153054009Y-105966736D01*
X153254193Y-105981183D01*
X153492556Y-105966220D01*
X153695835Y-105921334D01*
X153865063Y-105849103D01*
X154001270Y-105752106D01*
X154178753Y-105494138D01*
X154236538Y-105168065D01*
X154209193Y-104960658D01*
X154127159Y-104784208D01*
X153995595Y-104642841D01*
X153819660Y-104540685D01*
X154050800Y-104326055D01*
X154137478Y-104033002D01*
X154087948Y-103748205D01*
X153935230Y-103519129D01*
X153673134Y-103368475D01*
X153500295Y-103328232D01*
X153299595Y-103314817D01*
X153080322Y-103333907D01*
X152884781Y-103391176D01*
X152589665Y-103541830D01*
X152771275Y-103913305D01*
X153016861Y-103795671D01*
X153303723Y-103748205D01*
X153536926Y-103828691D01*
X153621540Y-104049512D01*
X153582329Y-104206357D01*
X153481205Y-104305417D01*
X153340870Y-104359075D01*
X153184025Y-104375585D01*
X152994160Y-104375585D01*
X152994160Y-104796590D01*
X153151005Y-104796590D01*
X153376986Y-104816712D01*
X153559628Y-104877076D01*
X153680357Y-104988003D01*
X153720600Y-105159810D01*
X153615349Y-105436353D01*
X153471402Y-105519934D01*
X153250065Y-105547795D01*
X153054525Y-105536444D01*
X152888909Y-105502393D01*
X152643323Y-105415715D01*
X152544263Y-105840848D01*
X151636233Y-105840848D01*
X151479609Y-105712310D01*
X151292422Y-105484223D01*
X151153331Y-105224000D01*
X151067678Y-104941642D01*
X151038757Y-104648000D01*
X151067678Y-104354358D01*
X151153331Y-104072000D01*
X151292422Y-103811777D01*
X151479609Y-103583690D01*
X151707696Y-103396504D01*
X151967918Y-103257412D01*
X152250276Y-103171760D01*
X152543919Y-103142838D01*
X154236881Y-103142838D01*
X154530524Y-103171760D01*
G37*
%TO.C,kibuzzard-63C11C89*%
G36*
X127546399Y-103171760D02*
G01*
X127828757Y-103257412D01*
X128088979Y-103396504D01*
X128317066Y-103583690D01*
X128504253Y-103811777D01*
X128643344Y-104072000D01*
X128728997Y-104354358D01*
X128757918Y-104648000D01*
X128728997Y-104941642D01*
X128643344Y-105224000D01*
X128504253Y-105484223D01*
X128317066Y-105712310D01*
X128088979Y-105899496D01*
X127828757Y-106038588D01*
X127546399Y-106124240D01*
X127252756Y-106153162D01*
X125477244Y-106153162D01*
X125183601Y-106124240D01*
X124901243Y-106038588D01*
X124641021Y-105899496D01*
X124412934Y-105712310D01*
X124225747Y-105484223D01*
X124086656Y-105224000D01*
X124001003Y-104941642D01*
X123972082Y-104648000D01*
X123972489Y-104643872D01*
X125477588Y-104643872D01*
X125491776Y-104960658D01*
X125534341Y-105234105D01*
X125605282Y-105464213D01*
X125704600Y-105650983D01*
X125878872Y-105834427D01*
X126099006Y-105944494D01*
X126365000Y-105981183D01*
X126630994Y-105944494D01*
X126851128Y-105834427D01*
X127025400Y-105650983D01*
X127124718Y-105464213D01*
X127195659Y-105234105D01*
X127238224Y-104960658D01*
X127252413Y-104643872D01*
X127238224Y-104329022D01*
X127195659Y-104057252D01*
X127124718Y-103828562D01*
X127025400Y-103642954D01*
X126851128Y-103460656D01*
X126630994Y-103351277D01*
X126365000Y-103314817D01*
X126103133Y-103351506D01*
X125884376Y-103461573D01*
X125708728Y-103645017D01*
X125607604Y-103831271D01*
X125535373Y-104059831D01*
X125492034Y-104330698D01*
X125477588Y-104643872D01*
X123972489Y-104643872D01*
X124001003Y-104354358D01*
X124086656Y-104072000D01*
X124225747Y-103811777D01*
X124412934Y-103583690D01*
X124641021Y-103396504D01*
X124901243Y-103257412D01*
X125183601Y-103171760D01*
X125477244Y-103142838D01*
X127252756Y-103142838D01*
X127546399Y-103171760D01*
G37*
G36*
X126782107Y-104914682D02*
G01*
X126745647Y-105138255D01*
X126684881Y-105314591D01*
X126550222Y-105486398D01*
X126365000Y-105543668D01*
X126182358Y-105486398D01*
X126047183Y-105314591D01*
X125985270Y-105138255D01*
X125948123Y-104914682D01*
X125935740Y-104643872D01*
X125937643Y-104602597D01*
X126137988Y-104602597D01*
X126199900Y-104794526D01*
X126369128Y-104875013D01*
X126532164Y-104794526D01*
X126596140Y-104602597D01*
X126532164Y-104408605D01*
X126369128Y-104326055D01*
X126199900Y-104408605D01*
X126137988Y-104602597D01*
X125937643Y-104602597D01*
X125948123Y-104375356D01*
X125985270Y-104153159D01*
X126047183Y-103977281D01*
X126182358Y-103805474D01*
X126365000Y-103748205D01*
X126550222Y-103805474D01*
X126684881Y-103977281D01*
X126745647Y-104153159D01*
X126782107Y-104375356D01*
X126794260Y-104643872D01*
X126782107Y-104914682D01*
G37*
%TO.C,kibuzzard-63C11C3D*%
G36*
X150065951Y-121249093D02*
G01*
X149864182Y-121083505D01*
X149698594Y-120881736D01*
X149575551Y-120651539D01*
X149499782Y-120401761D01*
X149474198Y-120142000D01*
X149499782Y-119882239D01*
X149575551Y-119632461D01*
X149698594Y-119402264D01*
X149711785Y-119386191D01*
X150805991Y-119386191D01*
X151298910Y-119386191D01*
X151298910Y-120901460D01*
X150805991Y-120901460D01*
X150805991Y-121273888D01*
X152240932Y-121273888D01*
X152240932Y-120901460D01*
X151751665Y-120901460D01*
X151751665Y-119484775D01*
X152609709Y-119484775D01*
X152755759Y-119857202D01*
X152978485Y-119767747D01*
X153212165Y-119638128D01*
X153212165Y-120901460D01*
X152737502Y-120901460D01*
X152737502Y-121273888D01*
X154110372Y-121273888D01*
X154110372Y-120985439D01*
X154847925Y-120985439D01*
X154875309Y-121126012D01*
X154948334Y-121228247D01*
X155052395Y-121292144D01*
X155176537Y-121314051D01*
X155353703Y-121248329D01*
X156282866Y-121248329D01*
X156529326Y-121290318D01*
X156764831Y-121303098D01*
X156985275Y-121287123D01*
X157186551Y-121239201D01*
X157365005Y-121156591D01*
X157516989Y-121036556D01*
X157640675Y-120877270D01*
X157734238Y-120676908D01*
X157793115Y-120432731D01*
X157812740Y-120142000D01*
X158009908Y-120142000D01*
X158025654Y-120408769D01*
X158072892Y-120643134D01*
X158151622Y-120845094D01*
X158261844Y-121014649D01*
X158454954Y-121185040D01*
X158698371Y-121287275D01*
X158992094Y-121321354D01*
X159191543Y-121309031D01*
X159366347Y-121272062D01*
X159623760Y-121164350D01*
X159510571Y-120810179D01*
X159326183Y-120890506D01*
X159035909Y-120930670D01*
X158775301Y-120879096D01*
X158599584Y-120724374D01*
X158525545Y-120566762D01*
X158481122Y-120368986D01*
X158466314Y-120131046D01*
X158478637Y-119926576D01*
X158515606Y-119758619D01*
X158643399Y-119519462D01*
X158822311Y-119391668D01*
X159028606Y-119353330D01*
X159300624Y-119391668D01*
X159503269Y-119484775D01*
X159575996Y-119262049D01*
X159893953Y-119262049D01*
X160116679Y-119576056D01*
X160346708Y-119404447D01*
X160569434Y-119353330D01*
X160781206Y-119428181D01*
X160865185Y-119641779D01*
X160797637Y-119835295D01*
X160626028Y-120032462D01*
X160518316Y-120136980D01*
X160403302Y-120246061D01*
X160288288Y-120361988D01*
X160180576Y-120487043D01*
X160085643Y-120622596D01*
X160008967Y-120770015D01*
X159958306Y-120930670D01*
X159941419Y-121105930D01*
X159939593Y-121182606D01*
X159948721Y-121273888D01*
X161423826Y-121273888D01*
X161423826Y-120901460D01*
X160452594Y-120901460D01*
X160490932Y-120780969D01*
X160519782Y-120740805D01*
X161661158Y-120740805D01*
X162603180Y-120740805D01*
X162603180Y-121273888D01*
X163052284Y-121273888D01*
X163052284Y-120740805D01*
X163296918Y-120740805D01*
X163296918Y-120372029D01*
X163052284Y-120372029D01*
X163052284Y-119013764D01*
X163435665Y-119013764D01*
X163477654Y-119218234D01*
X163537900Y-119473821D01*
X163586178Y-119665106D01*
X163638512Y-119864099D01*
X163694904Y-120070801D01*
X163754541Y-120281559D01*
X163816612Y-120492723D01*
X163881118Y-120704293D01*
X163976963Y-121005521D01*
X164067331Y-121273888D01*
X164531040Y-121273888D01*
X164600819Y-121079357D01*
X164668976Y-120880364D01*
X164735510Y-120676908D01*
X164799407Y-120472438D01*
X164859653Y-120270402D01*
X164916247Y-120070801D01*
X164993836Y-119780070D01*
X165062297Y-119503031D01*
X165121173Y-119245618D01*
X165170009Y-119013764D01*
X164698998Y-119013764D01*
X164666136Y-119203629D01*
X164625973Y-119422704D01*
X164580332Y-119659579D01*
X164531040Y-119902843D01*
X164478097Y-120147477D01*
X164421503Y-120388459D01*
X164363083Y-120614380D01*
X164304663Y-120813830D01*
X164245786Y-120611642D01*
X164185997Y-120384808D01*
X164127577Y-120143826D01*
X164072808Y-119899192D01*
X164022147Y-119656384D01*
X163976050Y-119420878D01*
X163937712Y-119203172D01*
X163910328Y-119013764D01*
X163435665Y-119013764D01*
X163052284Y-119013764D01*
X162650646Y-119013764D01*
X162504596Y-119169398D01*
X162358546Y-119344202D01*
X162216148Y-119529959D01*
X162081051Y-119718455D01*
X161955083Y-119906038D01*
X161840069Y-120089057D01*
X161740572Y-120260209D01*
X161661158Y-120412193D01*
X161661158Y-120740805D01*
X160519782Y-120740805D01*
X160584039Y-120651349D01*
X160700879Y-120527207D01*
X160810416Y-120423146D01*
X160996630Y-120240584D01*
X161160936Y-120043416D01*
X161277776Y-119833469D01*
X161321591Y-119608917D01*
X161263171Y-119325946D01*
X161106168Y-119123301D01*
X160879790Y-119002810D01*
X160613249Y-118962646D01*
X160422927Y-118980902D01*
X160231693Y-119035671D01*
X160051413Y-119128778D01*
X159893953Y-119262049D01*
X159575996Y-119262049D01*
X159620109Y-119126952D01*
X159545258Y-119083137D01*
X159422941Y-119028369D01*
X159253158Y-118982728D01*
X159035909Y-118962646D01*
X158821854Y-118982272D01*
X158625143Y-119041148D01*
X158449883Y-119137906D01*
X158300182Y-119271177D01*
X158178321Y-119439591D01*
X158086584Y-119641779D01*
X158029077Y-119876372D01*
X158009908Y-120142000D01*
X157812740Y-120142000D01*
X157794940Y-119857659D01*
X157741541Y-119618046D01*
X157656193Y-119419965D01*
X157542547Y-119260223D01*
X157400605Y-119138363D01*
X157230366Y-119053927D01*
X157036393Y-119004636D01*
X156823251Y-118988205D01*
X156571315Y-118999159D01*
X156282866Y-119042974D01*
X156282866Y-121248329D01*
X155353703Y-121248329D01*
X155402915Y-121230073D01*
X155501499Y-120985439D01*
X155402915Y-120748108D01*
X155176537Y-120664129D01*
X155052395Y-120686036D01*
X154948334Y-120748108D01*
X154875309Y-120848517D01*
X154847925Y-120985439D01*
X154110372Y-120985439D01*
X154110372Y-120901460D01*
X153661269Y-120901460D01*
X153661269Y-119879110D01*
X154847925Y-119879110D01*
X154875309Y-120019683D01*
X154948334Y-120121918D01*
X155052395Y-120185815D01*
X155176537Y-120207723D01*
X155402915Y-120123744D01*
X155501499Y-119879110D01*
X155402915Y-119641779D01*
X155176537Y-119557800D01*
X155052395Y-119579707D01*
X154948334Y-119641779D01*
X154875309Y-119742188D01*
X154847925Y-119879110D01*
X153661269Y-119879110D01*
X153661269Y-119013764D01*
X153354564Y-119013764D01*
X153197560Y-119156162D01*
X153004044Y-119287607D01*
X152799574Y-119400796D01*
X152609709Y-119484775D01*
X151751665Y-119484775D01*
X151751665Y-119386191D01*
X152240932Y-119386191D01*
X152240932Y-119013764D01*
X150805991Y-119013764D01*
X150805991Y-119386191D01*
X149711785Y-119386191D01*
X149864182Y-119200495D01*
X150065951Y-119034907D01*
X150296148Y-118911864D01*
X150545926Y-118836095D01*
X150805687Y-118810511D01*
X165170313Y-118810511D01*
X165430074Y-118836095D01*
X165679852Y-118911864D01*
X165910049Y-119034907D01*
X166111818Y-119200495D01*
X166277406Y-119402264D01*
X166400449Y-119632461D01*
X166476218Y-119882239D01*
X166501802Y-120142000D01*
X166476218Y-120401761D01*
X166400449Y-120651539D01*
X166277406Y-120881736D01*
X166111818Y-121083505D01*
X165910049Y-121249093D01*
X165679852Y-121372136D01*
X165430074Y-121447905D01*
X165170313Y-121473489D01*
X150805687Y-121473489D01*
X150545926Y-121447905D01*
X150296148Y-121372136D01*
X150065951Y-121249093D01*
G37*
G36*
X157108049Y-119442786D02*
G01*
X157257750Y-119612569D01*
X157334426Y-119857202D01*
X157356334Y-120142000D01*
X157349488Y-120303111D01*
X157328949Y-120450531D01*
X157237668Y-120693339D01*
X157069711Y-120853994D01*
X156812297Y-120912414D01*
X156772134Y-120912414D01*
X156731970Y-120908763D01*
X156731970Y-119389842D01*
X156797692Y-119380714D01*
X156863415Y-119378889D01*
X157108049Y-119442786D01*
G37*
G36*
X162603180Y-120372029D02*
G01*
X162092005Y-120372029D01*
X162201543Y-120163908D01*
X162331162Y-119953961D01*
X162468084Y-119754967D01*
X162603180Y-119576056D01*
X162603180Y-120372029D01*
G37*
%TO.C,kibuzzard-63C11BDD*%
G36*
X150065951Y-102199093D02*
G01*
X149864182Y-102033505D01*
X149698594Y-101831736D01*
X149575551Y-101601539D01*
X149499782Y-101351761D01*
X149474198Y-101092000D01*
X149499782Y-100832239D01*
X149575551Y-100582461D01*
X149698594Y-100352264D01*
X149711785Y-100336191D01*
X150805991Y-100336191D01*
X151298910Y-100336191D01*
X151298910Y-101851460D01*
X150805991Y-101851460D01*
X150805991Y-102223888D01*
X152240932Y-102223888D01*
X152240932Y-101851460D01*
X151751665Y-101851460D01*
X151751665Y-101088349D01*
X152562242Y-101088349D01*
X152574794Y-101368582D01*
X152612447Y-101610478D01*
X152675203Y-101814035D01*
X152763061Y-101979254D01*
X152917225Y-102141532D01*
X153111958Y-102238898D01*
X153347261Y-102271354D01*
X153582564Y-102238898D01*
X153777297Y-102141532D01*
X153931461Y-101979254D01*
X153954760Y-101935439D01*
X154847925Y-101935439D01*
X154875309Y-102076012D01*
X154948334Y-102178247D01*
X155052395Y-102242144D01*
X155176537Y-102264051D01*
X155353703Y-102198329D01*
X156282866Y-102198329D01*
X156529326Y-102240318D01*
X156764831Y-102253098D01*
X156985275Y-102237123D01*
X157186551Y-102189201D01*
X157365005Y-102106591D01*
X157516989Y-101986556D01*
X157640675Y-101827270D01*
X157734238Y-101626908D01*
X157793115Y-101382731D01*
X157812740Y-101092000D01*
X158009908Y-101092000D01*
X158025654Y-101358769D01*
X158072892Y-101593134D01*
X158151622Y-101795094D01*
X158261844Y-101964649D01*
X158454954Y-102135040D01*
X158698371Y-102237275D01*
X158992094Y-102271354D01*
X159191543Y-102259031D01*
X159366347Y-102222062D01*
X159623760Y-102114350D01*
X159510571Y-101760179D01*
X159326183Y-101840506D01*
X159035909Y-101880670D01*
X158775301Y-101829096D01*
X158599584Y-101674374D01*
X158525545Y-101516762D01*
X158481122Y-101318986D01*
X158466314Y-101081046D01*
X158478637Y-100876576D01*
X158515606Y-100708619D01*
X158643399Y-100469462D01*
X158822311Y-100341668D01*
X159028606Y-100303330D01*
X159300624Y-100341668D01*
X159503269Y-100434775D01*
X159575996Y-100212049D01*
X159893953Y-100212049D01*
X160116679Y-100526056D01*
X160346708Y-100354447D01*
X160569434Y-100303330D01*
X160781206Y-100378181D01*
X160865185Y-100591779D01*
X160797637Y-100785295D01*
X160626028Y-100982462D01*
X160518316Y-101086980D01*
X160403302Y-101196061D01*
X160288288Y-101311988D01*
X160180576Y-101437043D01*
X160085643Y-101572596D01*
X160008967Y-101720015D01*
X159958306Y-101880670D01*
X159941419Y-102055930D01*
X159939593Y-102132606D01*
X159948721Y-102223888D01*
X161423826Y-102223888D01*
X161423826Y-101851460D01*
X160452594Y-101851460D01*
X160490932Y-101730969D01*
X160519782Y-101690805D01*
X161661158Y-101690805D01*
X162603180Y-101690805D01*
X162603180Y-102223888D01*
X163052284Y-102223888D01*
X163052284Y-101690805D01*
X163296918Y-101690805D01*
X163296918Y-101322029D01*
X163052284Y-101322029D01*
X163052284Y-99963764D01*
X163435665Y-99963764D01*
X163477654Y-100168234D01*
X163537900Y-100423821D01*
X163586178Y-100615106D01*
X163638512Y-100814099D01*
X163694904Y-101020801D01*
X163754541Y-101231559D01*
X163816612Y-101442723D01*
X163881118Y-101654293D01*
X163976963Y-101955521D01*
X164067331Y-102223888D01*
X164531040Y-102223888D01*
X164600819Y-102029357D01*
X164668976Y-101830364D01*
X164735510Y-101626908D01*
X164799407Y-101422438D01*
X164859653Y-101220402D01*
X164916247Y-101020801D01*
X164993836Y-100730070D01*
X165062297Y-100453031D01*
X165121173Y-100195618D01*
X165170009Y-99963764D01*
X164698998Y-99963764D01*
X164666136Y-100153629D01*
X164625973Y-100372704D01*
X164580332Y-100609579D01*
X164531040Y-100852843D01*
X164478097Y-101097477D01*
X164421503Y-101338459D01*
X164363083Y-101564380D01*
X164304663Y-101763830D01*
X164245786Y-101561642D01*
X164185997Y-101334808D01*
X164127577Y-101093826D01*
X164072808Y-100849192D01*
X164022147Y-100606384D01*
X163976050Y-100370878D01*
X163937712Y-100153172D01*
X163910328Y-99963764D01*
X163435665Y-99963764D01*
X163052284Y-99963764D01*
X162650646Y-99963764D01*
X162504596Y-100119398D01*
X162358546Y-100294202D01*
X162216148Y-100479959D01*
X162081051Y-100668455D01*
X161955083Y-100856038D01*
X161840069Y-101039057D01*
X161740572Y-101210209D01*
X161661158Y-101362193D01*
X161661158Y-101690805D01*
X160519782Y-101690805D01*
X160584039Y-101601349D01*
X160700879Y-101477207D01*
X160810416Y-101373146D01*
X160996630Y-101190584D01*
X161160936Y-100993416D01*
X161277776Y-100783469D01*
X161321591Y-100558917D01*
X161263171Y-100275946D01*
X161106168Y-100073301D01*
X160879790Y-99952810D01*
X160613249Y-99912646D01*
X160422927Y-99930902D01*
X160231693Y-99985671D01*
X160051413Y-100078778D01*
X159893953Y-100212049D01*
X159575996Y-100212049D01*
X159620109Y-100076952D01*
X159545258Y-100033137D01*
X159422941Y-99978369D01*
X159253158Y-99932728D01*
X159035909Y-99912646D01*
X158821854Y-99932272D01*
X158625143Y-99991148D01*
X158449883Y-100087906D01*
X158300182Y-100221177D01*
X158178321Y-100389591D01*
X158086584Y-100591779D01*
X158029077Y-100826372D01*
X158009908Y-101092000D01*
X157812740Y-101092000D01*
X157794940Y-100807659D01*
X157741541Y-100568046D01*
X157656193Y-100369965D01*
X157542547Y-100210223D01*
X157400605Y-100088363D01*
X157230366Y-100003927D01*
X157036393Y-99954636D01*
X156823251Y-99938205D01*
X156571315Y-99949159D01*
X156282866Y-99992974D01*
X156282866Y-102198329D01*
X155353703Y-102198329D01*
X155402915Y-102180073D01*
X155501499Y-101935439D01*
X155402915Y-101698108D01*
X155176537Y-101614129D01*
X155052395Y-101636036D01*
X154948334Y-101698108D01*
X154875309Y-101798517D01*
X154847925Y-101935439D01*
X153954760Y-101935439D01*
X154019319Y-101814035D01*
X154082075Y-101610478D01*
X154119729Y-101368582D01*
X154132280Y-101088349D01*
X154120598Y-100829110D01*
X154847925Y-100829110D01*
X154875309Y-100969683D01*
X154948334Y-101071918D01*
X155052395Y-101135815D01*
X155176537Y-101157723D01*
X155402915Y-101073744D01*
X155501499Y-100829110D01*
X155402915Y-100591779D01*
X155176537Y-100507800D01*
X155052395Y-100529707D01*
X154948334Y-100591779D01*
X154875309Y-100692188D01*
X154847925Y-100829110D01*
X154120598Y-100829110D01*
X154119729Y-100809827D01*
X154082075Y-100569415D01*
X154019319Y-100367113D01*
X153931461Y-100202921D01*
X153777297Y-100041657D01*
X153582564Y-99944899D01*
X153347261Y-99912646D01*
X153115610Y-99945102D01*
X152922093Y-100042468D01*
X152766712Y-100204746D01*
X152677257Y-100369509D01*
X152613360Y-100571697D01*
X152575022Y-100811310D01*
X152562242Y-101088349D01*
X151751665Y-101088349D01*
X151751665Y-100336191D01*
X152240932Y-100336191D01*
X152240932Y-99963764D01*
X150805991Y-99963764D01*
X150805991Y-100336191D01*
X149711785Y-100336191D01*
X149864182Y-100150495D01*
X150065951Y-99984907D01*
X150296148Y-99861864D01*
X150545926Y-99786095D01*
X150805687Y-99760511D01*
X165170313Y-99760511D01*
X165430074Y-99786095D01*
X165679852Y-99861864D01*
X165910049Y-99984907D01*
X166111818Y-100150495D01*
X166277406Y-100352264D01*
X166400449Y-100582461D01*
X166476218Y-100832239D01*
X166501802Y-101092000D01*
X166476218Y-101351761D01*
X166400449Y-101601539D01*
X166277406Y-101831736D01*
X166111818Y-102033505D01*
X165910049Y-102199093D01*
X165679852Y-102322136D01*
X165430074Y-102397905D01*
X165170313Y-102423489D01*
X150805687Y-102423489D01*
X150545926Y-102397905D01*
X150296148Y-102322136D01*
X150065951Y-102199093D01*
G37*
G36*
X153716240Y-101327911D02*
G01*
X153683988Y-101525687D01*
X153630233Y-101681677D01*
X153511111Y-101833660D01*
X153347261Y-101884321D01*
X153185693Y-101833660D01*
X153066115Y-101681677D01*
X153011346Y-101525687D01*
X152978485Y-101327911D01*
X152967531Y-101088349D01*
X152969215Y-101051836D01*
X153146442Y-101051836D01*
X153201211Y-101221619D01*
X153350912Y-101292819D01*
X153495137Y-101221619D01*
X153551731Y-101051836D01*
X153495137Y-100880227D01*
X153350912Y-100807202D01*
X153201211Y-100880227D01*
X153146442Y-101051836D01*
X152969215Y-101051836D01*
X152978485Y-100850815D01*
X153011346Y-100654256D01*
X153066115Y-100498672D01*
X153185693Y-100346689D01*
X153347261Y-100296027D01*
X153511111Y-100346689D01*
X153630233Y-100498672D01*
X153683988Y-100654256D01*
X153716240Y-100850815D01*
X153726991Y-101088349D01*
X153716240Y-101327911D01*
G37*
G36*
X157108049Y-100392786D02*
G01*
X157257750Y-100562569D01*
X157334426Y-100807202D01*
X157356334Y-101092000D01*
X157349488Y-101253111D01*
X157328949Y-101400531D01*
X157237668Y-101643339D01*
X157069711Y-101803994D01*
X156812297Y-101862414D01*
X156772134Y-101862414D01*
X156731970Y-101858763D01*
X156731970Y-100339842D01*
X156797692Y-100330714D01*
X156863415Y-100328889D01*
X157108049Y-100392786D01*
G37*
G36*
X162603180Y-101322029D02*
G01*
X162092005Y-101322029D01*
X162201543Y-101113908D01*
X162331162Y-100903961D01*
X162468084Y-100704967D01*
X162603180Y-100526056D01*
X162603180Y-101322029D01*
G37*
%TO.C,kibuzzard-63C10C4F*%
G36*
X203427660Y-122217139D02*
G01*
X203662320Y-122288322D01*
X203878583Y-122403917D01*
X204068140Y-122559482D01*
X204223705Y-122749039D01*
X204339300Y-122965302D01*
X204410484Y-123199962D01*
X204434519Y-123444000D01*
X204410484Y-123688038D01*
X204339300Y-123922698D01*
X204223705Y-124138961D01*
X204068140Y-124328518D01*
X203878583Y-124484083D01*
X203662320Y-124599678D01*
X203427660Y-124670861D01*
X203183622Y-124694897D01*
X198136378Y-124694897D01*
X197892340Y-124670861D01*
X197657680Y-124599678D01*
X197441417Y-124484083D01*
X197251860Y-124328518D01*
X197096295Y-124138961D01*
X196980700Y-123922698D01*
X196909516Y-123688038D01*
X196885481Y-123444000D01*
X196909516Y-123199962D01*
X196980700Y-122965302D01*
X197096295Y-122749039D01*
X197198084Y-122625009D01*
X198136669Y-122625009D01*
X198349711Y-122925364D01*
X198569739Y-122761216D01*
X198782781Y-122712321D01*
X198985346Y-122783917D01*
X199065674Y-122988229D01*
X199001062Y-123173331D01*
X198836915Y-123361926D01*
X198733886Y-123461899D01*
X198623872Y-123566238D01*
X198513859Y-123677124D01*
X198410830Y-123796743D01*
X198320025Y-123926402D01*
X198246682Y-124067411D01*
X198198224Y-124221081D01*
X198182071Y-124388721D01*
X198180325Y-124462064D01*
X198189056Y-124549376D01*
X199600026Y-124549376D01*
X199600026Y-124193141D01*
X198671021Y-124193141D01*
X198707692Y-124077889D01*
X198735288Y-124039471D01*
X199827039Y-124039471D01*
X200728104Y-124039471D01*
X200728104Y-124549376D01*
X201157681Y-124549376D01*
X201157681Y-124039471D01*
X201391679Y-124039471D01*
X201391679Y-123686729D01*
X201157681Y-123686729D01*
X201157681Y-122387519D01*
X201524394Y-122387519D01*
X201564557Y-122583099D01*
X201622184Y-122827574D01*
X201668362Y-123010542D01*
X201718422Y-123200883D01*
X201772361Y-123398597D01*
X201829405Y-123600192D01*
X201888778Y-123802175D01*
X201950479Y-124004546D01*
X202042157Y-124292678D01*
X202128596Y-124549376D01*
X202572144Y-124549376D01*
X202638889Y-124363304D01*
X202704083Y-124172962D01*
X202767724Y-123978353D01*
X202828842Y-123782773D01*
X202886469Y-123589521D01*
X202940602Y-123398597D01*
X203014818Y-123120507D01*
X203080302Y-122855514D01*
X203136619Y-122609292D01*
X203183331Y-122387519D01*
X202732799Y-122387519D01*
X202701366Y-122569129D01*
X202662949Y-122778679D01*
X202619292Y-123005255D01*
X202572144Y-123237942D01*
X202521502Y-123471940D01*
X202467369Y-123702445D01*
X202411489Y-123918543D01*
X202355609Y-124109321D01*
X202299292Y-123915924D01*
X202242102Y-123698953D01*
X202186222Y-123468448D01*
X202133835Y-123234450D01*
X202085377Y-123002199D01*
X202041284Y-122776932D01*
X202004612Y-122568692D01*
X201978419Y-122387519D01*
X201524394Y-122387519D01*
X201157681Y-122387519D01*
X200773506Y-122387519D01*
X200633806Y-122536387D01*
X200494106Y-122703590D01*
X200357899Y-122881271D01*
X200228676Y-123061571D01*
X200108185Y-123240998D01*
X199998171Y-123416060D01*
X199903001Y-123579771D01*
X199827039Y-123725146D01*
X199827039Y-124039471D01*
X198735288Y-124039471D01*
X198796751Y-123953905D01*
X198908511Y-123835160D01*
X199013286Y-123735624D01*
X199191404Y-123560999D01*
X199348566Y-123372404D01*
X199460326Y-123171585D01*
X199502236Y-122956796D01*
X199446356Y-122686127D01*
X199296179Y-122492294D01*
X199079644Y-122377041D01*
X198824691Y-122338624D01*
X198642645Y-122356086D01*
X198459725Y-122408474D01*
X198287283Y-122497532D01*
X198136669Y-122625009D01*
X197198084Y-122625009D01*
X197251860Y-122559482D01*
X197441417Y-122403917D01*
X197657680Y-122288322D01*
X197892340Y-122217139D01*
X198136378Y-122193103D01*
X203183622Y-122193103D01*
X203427660Y-122217139D01*
G37*
G36*
X200728104Y-123686729D02*
G01*
X200239154Y-123686729D01*
X200343929Y-123487656D01*
X200467912Y-123286837D01*
X200598881Y-123096496D01*
X200728104Y-122925364D01*
X200728104Y-123686729D01*
G37*
G36*
X203427660Y-135933139D02*
G01*
X203662320Y-136004322D01*
X203878583Y-136119917D01*
X204068140Y-136275482D01*
X204223705Y-136465039D01*
X204339300Y-136681302D01*
X204410484Y-136915962D01*
X204434519Y-137160000D01*
X204410484Y-137404038D01*
X204339300Y-137638698D01*
X204223705Y-137854961D01*
X204068140Y-138044518D01*
X203878583Y-138200083D01*
X203662320Y-138315678D01*
X203427660Y-138386861D01*
X203183622Y-138410897D01*
X198136378Y-138410897D01*
X197892340Y-138386861D01*
X197657680Y-138315678D01*
X197441417Y-138200083D01*
X197251860Y-138044518D01*
X197096295Y-137854961D01*
X196980700Y-137638698D01*
X196909516Y-137404038D01*
X196885481Y-137160000D01*
X196909516Y-136915962D01*
X196980700Y-136681302D01*
X197096295Y-136465039D01*
X197198084Y-136341009D01*
X198136669Y-136341009D01*
X198349711Y-136641364D01*
X198569739Y-136477216D01*
X198782781Y-136428321D01*
X198985346Y-136499917D01*
X199065674Y-136704229D01*
X199001062Y-136889331D01*
X198836915Y-137077926D01*
X198733886Y-137177899D01*
X198623872Y-137282238D01*
X198513859Y-137393124D01*
X198410830Y-137512743D01*
X198320025Y-137642402D01*
X198246682Y-137783411D01*
X198198224Y-137937081D01*
X198182071Y-138104721D01*
X198180325Y-138178064D01*
X198189056Y-138265376D01*
X199600026Y-138265376D01*
X199600026Y-137909141D01*
X198671021Y-137909141D01*
X198707692Y-137793889D01*
X198735288Y-137755471D01*
X199827039Y-137755471D01*
X200728104Y-137755471D01*
X200728104Y-138265376D01*
X201157681Y-138265376D01*
X201157681Y-137755471D01*
X201391679Y-137755471D01*
X201391679Y-137402729D01*
X201157681Y-137402729D01*
X201157681Y-136103519D01*
X201524394Y-136103519D01*
X201564557Y-136299099D01*
X201622184Y-136543574D01*
X201668362Y-136726542D01*
X201718422Y-136916883D01*
X201772361Y-137114597D01*
X201829405Y-137316192D01*
X201888778Y-137518175D01*
X201950479Y-137720546D01*
X202042157Y-138008678D01*
X202128596Y-138265376D01*
X202572144Y-138265376D01*
X202638889Y-138079304D01*
X202704083Y-137888962D01*
X202767724Y-137694353D01*
X202828842Y-137498773D01*
X202886469Y-137305521D01*
X202940602Y-137114597D01*
X203014818Y-136836507D01*
X203080302Y-136571514D01*
X203136619Y-136325292D01*
X203183331Y-136103519D01*
X202732799Y-136103519D01*
X202701366Y-136285129D01*
X202662949Y-136494679D01*
X202619292Y-136721255D01*
X202572144Y-136953942D01*
X202521502Y-137187940D01*
X202467369Y-137418445D01*
X202411489Y-137634543D01*
X202355609Y-137825321D01*
X202299292Y-137631924D01*
X202242102Y-137414953D01*
X202186222Y-137184448D01*
X202133835Y-136950450D01*
X202085377Y-136718199D01*
X202041284Y-136492932D01*
X202004612Y-136284692D01*
X201978419Y-136103519D01*
X201524394Y-136103519D01*
X201157681Y-136103519D01*
X200773506Y-136103519D01*
X200633806Y-136252387D01*
X200494106Y-136419590D01*
X200357899Y-136597271D01*
X200228676Y-136777571D01*
X200108185Y-136956998D01*
X199998171Y-137132060D01*
X199903001Y-137295771D01*
X199827039Y-137441146D01*
X199827039Y-137755471D01*
X198735288Y-137755471D01*
X198796751Y-137669905D01*
X198908511Y-137551160D01*
X199013286Y-137451624D01*
X199191404Y-137276999D01*
X199348566Y-137088404D01*
X199460326Y-136887585D01*
X199502236Y-136672796D01*
X199446356Y-136402127D01*
X199296179Y-136208294D01*
X199079644Y-136093041D01*
X198824691Y-136054624D01*
X198642645Y-136072086D01*
X198459725Y-136124474D01*
X198287283Y-136213532D01*
X198136669Y-136341009D01*
X197198084Y-136341009D01*
X197251860Y-136275482D01*
X197441417Y-136119917D01*
X197657680Y-136004322D01*
X197892340Y-135933139D01*
X198136378Y-135909103D01*
X203183622Y-135909103D01*
X203427660Y-135933139D01*
G37*
G36*
X200728104Y-137402729D02*
G01*
X200239154Y-137402729D01*
X200343929Y-137203656D01*
X200467912Y-137002837D01*
X200598881Y-136812496D01*
X200728104Y-136641364D01*
X200728104Y-137402729D01*
G37*
D12*
%TO.C,SW16*%
X191190400Y-134308400D02*
X191190400Y-135108400D01*
X187590400Y-126308400D02*
X191190400Y-126308400D01*
X187590400Y-129308400D02*
X187590400Y-129708400D01*
X191190400Y-127108400D02*
X191190400Y-126308400D01*
X187590400Y-127108400D02*
X187590400Y-126308400D01*
X191190400Y-129308400D02*
X191190400Y-129708400D01*
X187590400Y-131708400D02*
X187590400Y-132108400D01*
X191190400Y-131708400D02*
X191190400Y-132108400D01*
X187590400Y-134308400D02*
X187590400Y-135108400D01*
X187590400Y-135108400D02*
X191190400Y-135108400D01*
%TO.C,SW15*%
X182190400Y-134308400D02*
X182190400Y-135108400D01*
X178590400Y-126308400D02*
X182190400Y-126308400D01*
X178590400Y-129308400D02*
X178590400Y-129708400D01*
X182190400Y-127108400D02*
X182190400Y-126308400D01*
X178590400Y-127108400D02*
X178590400Y-126308400D01*
X182190400Y-129308400D02*
X182190400Y-129708400D01*
X178590400Y-131708400D02*
X178590400Y-132108400D01*
X182190400Y-131708400D02*
X182190400Y-132108400D01*
X178590400Y-134308400D02*
X178590400Y-135108400D01*
X178590400Y-135108400D02*
X182190400Y-135108400D01*
%TO.C,SW14*%
X173190400Y-134308400D02*
X173190400Y-135108400D01*
X169590400Y-126308400D02*
X173190400Y-126308400D01*
X169590400Y-129308400D02*
X169590400Y-129708400D01*
X173190400Y-127108400D02*
X173190400Y-126308400D01*
X169590400Y-127108400D02*
X169590400Y-126308400D01*
X173190400Y-129308400D02*
X173190400Y-129708400D01*
X169590400Y-131708400D02*
X169590400Y-132108400D01*
X173190400Y-131708400D02*
X173190400Y-132108400D01*
X169590400Y-134308400D02*
X169590400Y-135108400D01*
X169590400Y-135108400D02*
X173190400Y-135108400D01*
%TO.C,SW13*%
X164190400Y-134308400D02*
X164190400Y-135108400D01*
X160590400Y-126308400D02*
X164190400Y-126308400D01*
X160590400Y-129308400D02*
X160590400Y-129708400D01*
X164190400Y-127108400D02*
X164190400Y-126308400D01*
X160590400Y-127108400D02*
X160590400Y-126308400D01*
X164190400Y-129308400D02*
X164190400Y-129708400D01*
X160590400Y-131708400D02*
X160590400Y-132108400D01*
X164190400Y-131708400D02*
X164190400Y-132108400D01*
X160590400Y-134308400D02*
X160590400Y-135108400D01*
X160590400Y-135108400D02*
X164190400Y-135108400D01*
%TO.C,SW12*%
X155190400Y-134308400D02*
X155190400Y-135108400D01*
X151590400Y-126308400D02*
X155190400Y-126308400D01*
X151590400Y-129308400D02*
X151590400Y-129708400D01*
X155190400Y-127108400D02*
X155190400Y-126308400D01*
X151590400Y-127108400D02*
X151590400Y-126308400D01*
X155190400Y-129308400D02*
X155190400Y-129708400D01*
X151590400Y-131708400D02*
X151590400Y-132108400D01*
X155190400Y-131708400D02*
X155190400Y-132108400D01*
X151590400Y-134308400D02*
X151590400Y-135108400D01*
X151590400Y-135108400D02*
X155190400Y-135108400D01*
%TO.C,SW11*%
X146190400Y-134308400D02*
X146190400Y-135108400D01*
X142590400Y-126308400D02*
X146190400Y-126308400D01*
X142590400Y-129308400D02*
X142590400Y-129708400D01*
X146190400Y-127108400D02*
X146190400Y-126308400D01*
X142590400Y-127108400D02*
X142590400Y-126308400D01*
X146190400Y-129308400D02*
X146190400Y-129708400D01*
X142590400Y-131708400D02*
X142590400Y-132108400D01*
X146190400Y-131708400D02*
X146190400Y-132108400D01*
X142590400Y-134308400D02*
X142590400Y-135108400D01*
X142590400Y-135108400D02*
X146190400Y-135108400D01*
%TO.C,SW10*%
X137190400Y-134308400D02*
X137190400Y-135108400D01*
X133590400Y-126308400D02*
X137190400Y-126308400D01*
X133590400Y-129308400D02*
X133590400Y-129708400D01*
X137190400Y-127108400D02*
X137190400Y-126308400D01*
X133590400Y-127108400D02*
X133590400Y-126308400D01*
X137190400Y-129308400D02*
X137190400Y-129708400D01*
X133590400Y-131708400D02*
X133590400Y-132108400D01*
X137190400Y-131708400D02*
X137190400Y-132108400D01*
X133590400Y-134308400D02*
X133590400Y-135108400D01*
X133590400Y-135108400D02*
X137190400Y-135108400D01*
%TO.C,SW9*%
X128187600Y-134308400D02*
X128187600Y-135108400D01*
X124587600Y-126308400D02*
X128187600Y-126308400D01*
X124587600Y-129308400D02*
X124587600Y-129708400D01*
X128187600Y-127108400D02*
X128187600Y-126308400D01*
X124587600Y-127108400D02*
X124587600Y-126308400D01*
X128187600Y-129308400D02*
X128187600Y-129708400D01*
X124587600Y-131708400D02*
X124587600Y-132108400D01*
X128187600Y-131708400D02*
X128187600Y-132108400D01*
X124587600Y-134308400D02*
X124587600Y-135108400D01*
X124587600Y-135108400D02*
X128187600Y-135108400D01*
%TO.C,SW8*%
X191190400Y-115563200D02*
X191190400Y-116363200D01*
X187590400Y-107563200D02*
X191190400Y-107563200D01*
X187590400Y-110563200D02*
X187590400Y-110963200D01*
X191190400Y-108363200D02*
X191190400Y-107563200D01*
X187590400Y-108363200D02*
X187590400Y-107563200D01*
X191190400Y-110563200D02*
X191190400Y-110963200D01*
X187590400Y-112963200D02*
X187590400Y-113363200D01*
X191190400Y-112963200D02*
X191190400Y-113363200D01*
X187590400Y-115563200D02*
X187590400Y-116363200D01*
X187590400Y-116363200D02*
X191190400Y-116363200D01*
%TO.C,SW7*%
X182190400Y-115563200D02*
X182190400Y-116363200D01*
X178590400Y-107563200D02*
X182190400Y-107563200D01*
X178590400Y-110563200D02*
X178590400Y-110963200D01*
X182190400Y-108363200D02*
X182190400Y-107563200D01*
X178590400Y-108363200D02*
X178590400Y-107563200D01*
X182190400Y-110563200D02*
X182190400Y-110963200D01*
X178590400Y-112963200D02*
X178590400Y-113363200D01*
X182190400Y-112963200D02*
X182190400Y-113363200D01*
X178590400Y-115563200D02*
X178590400Y-116363200D01*
X178590400Y-116363200D02*
X182190400Y-116363200D01*
%TO.C,SW6*%
X173190400Y-115563200D02*
X173190400Y-116363200D01*
X169590400Y-107563200D02*
X173190400Y-107563200D01*
X169590400Y-110563200D02*
X169590400Y-110963200D01*
X173190400Y-108363200D02*
X173190400Y-107563200D01*
X169590400Y-108363200D02*
X169590400Y-107563200D01*
X173190400Y-110563200D02*
X173190400Y-110963200D01*
X169590400Y-112963200D02*
X169590400Y-113363200D01*
X173190400Y-112963200D02*
X173190400Y-113363200D01*
X169590400Y-115563200D02*
X169590400Y-116363200D01*
X169590400Y-116363200D02*
X173190400Y-116363200D01*
%TO.C,SW5*%
X164190400Y-115563200D02*
X164190400Y-116363200D01*
X160590400Y-107563200D02*
X164190400Y-107563200D01*
X160590400Y-110563200D02*
X160590400Y-110963200D01*
X164190400Y-108363200D02*
X164190400Y-107563200D01*
X160590400Y-108363200D02*
X160590400Y-107563200D01*
X164190400Y-110563200D02*
X164190400Y-110963200D01*
X160590400Y-112963200D02*
X160590400Y-113363200D01*
X164190400Y-112963200D02*
X164190400Y-113363200D01*
X160590400Y-115563200D02*
X160590400Y-116363200D01*
X160590400Y-116363200D02*
X164190400Y-116363200D01*
%TO.C,SW4*%
X155190400Y-115563200D02*
X155190400Y-116363200D01*
X151590400Y-107563200D02*
X155190400Y-107563200D01*
X151590400Y-110563200D02*
X151590400Y-110963200D01*
X155190400Y-108363200D02*
X155190400Y-107563200D01*
X151590400Y-108363200D02*
X151590400Y-107563200D01*
X155190400Y-110563200D02*
X155190400Y-110963200D01*
X151590400Y-112963200D02*
X151590400Y-113363200D01*
X155190400Y-112963200D02*
X155190400Y-113363200D01*
X151590400Y-115563200D02*
X151590400Y-116363200D01*
X151590400Y-116363200D02*
X155190400Y-116363200D01*
%TO.C,SW3*%
X146190400Y-115563200D02*
X146190400Y-116363200D01*
X142590400Y-107563200D02*
X146190400Y-107563200D01*
X142590400Y-110563200D02*
X142590400Y-110963200D01*
X146190400Y-108363200D02*
X146190400Y-107563200D01*
X142590400Y-108363200D02*
X142590400Y-107563200D01*
X146190400Y-110563200D02*
X146190400Y-110963200D01*
X142590400Y-112963200D02*
X142590400Y-113363200D01*
X146190400Y-112963200D02*
X146190400Y-113363200D01*
X142590400Y-115563200D02*
X142590400Y-116363200D01*
X142590400Y-116363200D02*
X146190400Y-116363200D01*
%TO.C,SW2*%
X137190400Y-115563200D02*
X137190400Y-116363200D01*
X133590400Y-107563200D02*
X137190400Y-107563200D01*
X133590400Y-110563200D02*
X133590400Y-110963200D01*
X137190400Y-108363200D02*
X137190400Y-107563200D01*
X133590400Y-108363200D02*
X133590400Y-107563200D01*
X137190400Y-110563200D02*
X137190400Y-110963200D01*
X133590400Y-112963200D02*
X133590400Y-113363200D01*
X137190400Y-112963200D02*
X137190400Y-113363200D01*
X133590400Y-115563200D02*
X133590400Y-116363200D01*
X133590400Y-116363200D02*
X137190400Y-116363200D01*
%TO.C,SW1*%
X128187600Y-115563200D02*
X128187600Y-116363200D01*
X124587600Y-107563200D02*
X128187600Y-107563200D01*
X124587600Y-110563200D02*
X124587600Y-110963200D01*
X128187600Y-108363200D02*
X128187600Y-107563200D01*
X124587600Y-108363200D02*
X124587600Y-107563200D01*
X128187600Y-110563200D02*
X128187600Y-110963200D01*
X124587600Y-112963200D02*
X124587600Y-113363200D01*
X128187600Y-112963200D02*
X128187600Y-113363200D01*
X124587600Y-115563200D02*
X124587600Y-116363200D01*
X124587600Y-116363200D02*
X128187600Y-116363200D01*
%TO.C,J1*%
X199616000Y-126560000D02*
X199662000Y-126607000D01*
X201708000Y-129062000D02*
X201754000Y-129109000D01*
X203285000Y-135515000D02*
X203285000Y-125235000D01*
X205585000Y-135755000D02*
X205585000Y-135255000D01*
X204845000Y-135755000D02*
X205585000Y-135755000D01*
X201924000Y-128869000D02*
X201959000Y-128904000D01*
X195424000Y-135515000D02*
X205345000Y-135515000D01*
X195424000Y-125235000D02*
X205345000Y-125235000D01*
X205345000Y-135515000D02*
X205345000Y-125235000D01*
X204785000Y-135515000D02*
X204785000Y-125235000D01*
X195424000Y-135515000D02*
X195424000Y-125235000D01*
X198384000Y-135515000D02*
X198384000Y-125235000D01*
X199410000Y-126765000D02*
X199446000Y-126800000D01*
X202220000Y-133599000D02*
G75*
G03*
X202365253Y-132886195I-1535001J683999D01*
G01*
X200001000Y-134450000D02*
G75*
G03*
X201368042Y-134450427I684001J1534993D01*
G01*
X199150000Y-132231000D02*
G75*
G03*
X199149573Y-133598042I1534993J-684001D01*
G01*
X201369000Y-131379999D02*
G75*
G03*
X200001958Y-131379573I-684000J-1535001D01*
G01*
X202365000Y-132915000D02*
G75*
G03*
X202219756Y-132231682I-1680000J0D01*
G01*
X202365000Y-127835000D02*
G75*
G03*
X202365000Y-127835000I-1680000J0D01*
G01*
%TD*%
%LPC*%
D13*
%TO.C,SW16*%
X190990400Y-128208400D03*
X187790400Y-128208400D03*
X190990400Y-130708400D03*
X187790400Y-130708400D03*
X190990400Y-133208400D03*
X187790400Y-133208400D03*
%TD*%
%TO.C,SW15*%
X181990400Y-128208400D03*
X178790400Y-128208400D03*
X181990400Y-130708400D03*
X178790400Y-130708400D03*
X181990400Y-133208400D03*
X178790400Y-133208400D03*
%TD*%
%TO.C,SW14*%
X172990400Y-128208400D03*
X169790400Y-128208400D03*
X172990400Y-130708400D03*
X169790400Y-130708400D03*
X172990400Y-133208400D03*
X169790400Y-133208400D03*
%TD*%
%TO.C,SW13*%
X163990400Y-128208400D03*
X160790400Y-128208400D03*
X163990400Y-130708400D03*
X160790400Y-130708400D03*
X163990400Y-133208400D03*
X160790400Y-133208400D03*
%TD*%
%TO.C,SW12*%
X154990400Y-128208400D03*
X151790400Y-128208400D03*
X154990400Y-130708400D03*
X151790400Y-130708400D03*
X154990400Y-133208400D03*
X151790400Y-133208400D03*
%TD*%
%TO.C,SW11*%
X145990400Y-128208400D03*
X142790400Y-128208400D03*
X145990400Y-130708400D03*
X142790400Y-130708400D03*
X145990400Y-133208400D03*
X142790400Y-133208400D03*
%TD*%
%TO.C,SW10*%
X136990400Y-128208400D03*
X133790400Y-128208400D03*
X136990400Y-130708400D03*
X133790400Y-130708400D03*
X136990400Y-133208400D03*
X133790400Y-133208400D03*
%TD*%
%TO.C,SW9*%
X127987600Y-128208400D03*
X124787600Y-128208400D03*
X127987600Y-130708400D03*
X124787600Y-130708400D03*
X127987600Y-133208400D03*
X124787600Y-133208400D03*
%TD*%
%TO.C,SW8*%
X190990400Y-109463200D03*
X187790400Y-109463200D03*
X190990400Y-111963200D03*
X187790400Y-111963200D03*
X190990400Y-114463200D03*
X187790400Y-114463200D03*
%TD*%
%TO.C,SW7*%
X181990400Y-109463200D03*
X178790400Y-109463200D03*
X181990400Y-111963200D03*
X178790400Y-111963200D03*
X181990400Y-114463200D03*
X178790400Y-114463200D03*
%TD*%
%TO.C,SW6*%
X172990400Y-109463200D03*
X169790400Y-109463200D03*
X172990400Y-111963200D03*
X169790400Y-111963200D03*
X172990400Y-114463200D03*
X169790400Y-114463200D03*
%TD*%
%TO.C,SW5*%
X163990400Y-109463200D03*
X160790400Y-109463200D03*
X163990400Y-111963200D03*
X160790400Y-111963200D03*
X163990400Y-114463200D03*
X160790400Y-114463200D03*
%TD*%
%TO.C,SW4*%
X154990400Y-109463200D03*
X151790400Y-109463200D03*
X154990400Y-111963200D03*
X151790400Y-111963200D03*
X154990400Y-114463200D03*
X151790400Y-114463200D03*
%TD*%
%TO.C,SW3*%
X145990400Y-109463200D03*
X142790400Y-109463200D03*
X145990400Y-111963200D03*
X142790400Y-111963200D03*
X145990400Y-114463200D03*
X142790400Y-114463200D03*
%TD*%
%TO.C,SW2*%
X136990400Y-109463200D03*
X133790400Y-109463200D03*
X136990400Y-111963200D03*
X133790400Y-111963200D03*
X136990400Y-114463200D03*
X133790400Y-114463200D03*
%TD*%
%TO.C,SW1*%
X127987600Y-109463200D03*
X124787600Y-109463200D03*
X127987600Y-111963200D03*
X124787600Y-111963200D03*
X127987600Y-114463200D03*
X124787600Y-114463200D03*
%TD*%
D14*
%TO.C,J1*%
X200685000Y-132915000D03*
D15*
X200685000Y-127835000D03*
%TD*%
D16*
%TO.C,J2*%
X123393200Y-92659200D03*
X128473200Y-92659200D03*
X133553200Y-92659200D03*
X138633200Y-92659200D03*
X143713200Y-92659200D03*
X148793200Y-92659200D03*
X153873200Y-92659200D03*
X158953200Y-92659200D03*
X164033200Y-92659200D03*
X169113200Y-92659200D03*
X174193200Y-92659200D03*
X179273200Y-92659200D03*
X184353200Y-92659200D03*
X189433200Y-92659200D03*
X194513200Y-92659200D03*
X199593200Y-92659200D03*
%TD*%
M02*
