%TF.GenerationSoftware,KiCad,Pcbnew,(6.0.10)*%
%TF.CreationDate,2023-01-16T10:01:35+01:00*%
%TF.ProjectId,SiemensET200BExpansionBoard,5369656d-656e-4734-9554-323030424578,rev?*%
%TF.SameCoordinates,Original*%
%TF.FileFunction,Profile,NP*%
%FSLAX46Y46*%
G04 Gerber Fmt 4.6, Leading zero omitted, Abs format (unit mm)*
G04 Created by KiCad (PCBNEW (6.0.10)) date 2023-01-16 10:01:35*
%MOMM*%
%LPD*%
G01*
G04 APERTURE LIST*
%TA.AperFunction,Profile*%
%ADD10C,0.100000*%
%TD*%
G04 APERTURE END LIST*
D10*
X180136800Y-95758000D02*
X180136800Y-89357200D01*
X178409600Y-89357200D02*
X180136800Y-89357200D01*
X190296800Y-95758000D02*
X190296800Y-89357200D01*
X129336800Y-95758000D02*
X129336800Y-89357200D01*
X169976862Y-95758000D02*
G75*
G03*
X173330368Y-95707200I1677138J0D01*
G01*
X153009600Y-89357200D02*
X154736800Y-89357200D01*
X163169600Y-89357200D02*
X164896800Y-89357200D01*
X198730368Y-95707200D02*
X198729600Y-89357200D01*
X132690368Y-95707200D02*
X132689600Y-89357200D01*
X205232000Y-139344400D02*
G75*
G03*
X205994000Y-138582400I0J762000D01*
G01*
X154736800Y-95758000D02*
X154736800Y-89357200D01*
X163170368Y-95707200D02*
X163169600Y-89357200D01*
X159816800Y-95758000D02*
X159816800Y-89357200D01*
X205232000Y-121315815D02*
X200152000Y-121315815D01*
X149656800Y-95758000D02*
X149656800Y-89357200D01*
X193650368Y-95707200D02*
X193649600Y-89357200D01*
X122529600Y-95758000D02*
X122529600Y-89357200D01*
X149656862Y-95758000D02*
G75*
G03*
X153010368Y-95707200I1677138J0D01*
G01*
X124256862Y-95758000D02*
G75*
G03*
X127610368Y-95707200I1677138J0D01*
G01*
X188569600Y-89357200D02*
X190296800Y-89357200D01*
X127609600Y-89357200D02*
X129336800Y-89357200D01*
X134416862Y-95758000D02*
G75*
G03*
X137770368Y-95707200I1677138J0D01*
G01*
X164896862Y-95758000D02*
G75*
G03*
X168250368Y-95707200I1677138J0D01*
G01*
X183489600Y-89357200D02*
X185216800Y-89357200D01*
X200456832Y-95707200D02*
G75*
G03*
X202184768Y-97383599I1677168J0D01*
G01*
X129336862Y-95758000D02*
G75*
G03*
X132690368Y-95707200I1677138J0D01*
G01*
X127610368Y-95707200D02*
X127609600Y-89357200D01*
X122529600Y-89357200D02*
X124256800Y-89357200D01*
X142849600Y-89357200D02*
X144576800Y-89357200D01*
X168249600Y-89357200D02*
X169976800Y-89357200D01*
X144576862Y-95758000D02*
G75*
G03*
X147930368Y-95707200I1677138J0D01*
G01*
X124256800Y-95758000D02*
X124256800Y-89357200D01*
X144576800Y-95758000D02*
X144576800Y-89357200D01*
X168250368Y-95707200D02*
X168249600Y-89357200D01*
X159816862Y-95758000D02*
G75*
G03*
X163170368Y-95707200I1677138J0D01*
G01*
X202184384Y-101346000D02*
X200152000Y-101346000D01*
X202184768Y-97383599D02*
X202184384Y-101346000D01*
X200456800Y-95707200D02*
X200456800Y-89357200D01*
X142850368Y-95707200D02*
X142849600Y-89357200D01*
X190296862Y-95758000D02*
G75*
G03*
X193650368Y-95707200I1677138J0D01*
G01*
X175056862Y-95758000D02*
G75*
G03*
X178410368Y-95707200I1677138J0D01*
G01*
X153010368Y-95707200D02*
X153009600Y-89357200D01*
X164896800Y-95758000D02*
X164896800Y-89357200D01*
X173329600Y-89357200D02*
X175056800Y-89357200D01*
X137770368Y-95707200D02*
X137769600Y-89357200D01*
X183490368Y-95707200D02*
X183489600Y-89357200D01*
X132689600Y-89357200D02*
X134416800Y-89357200D01*
X200152000Y-101346000D02*
G75*
G03*
X199390000Y-102108000I0J-762000D01*
G01*
X147929600Y-89357200D02*
X149656800Y-89357200D01*
X173330368Y-95707200D02*
X173329600Y-89357200D01*
X195376862Y-95758000D02*
G75*
G03*
X198730368Y-95707200I1677138J0D01*
G01*
X205994000Y-122077815D02*
X205994000Y-138582400D01*
X198729600Y-89357200D02*
X200456800Y-89357200D01*
X120853201Y-97485968D02*
X120858610Y-138576986D01*
X188570368Y-95707200D02*
X188569600Y-89357200D01*
X147930368Y-95707200D02*
X147929600Y-89357200D01*
X199389952Y-120650008D02*
G75*
G03*
X200152000Y-121315815I793948J139708D01*
G01*
X139496800Y-95758000D02*
X139496800Y-89357200D01*
X205993985Y-122077815D02*
G75*
G03*
X205232000Y-121315815I-761985J15D01*
G01*
X120853201Y-97485970D02*
G75*
G03*
X122529600Y-95758000I-1J1677170D01*
G01*
X180136862Y-95758000D02*
G75*
G03*
X183490368Y-95707200I1677138J0D01*
G01*
X195376800Y-95758000D02*
X195376800Y-89357200D01*
X120858614Y-138576986D02*
G75*
G03*
X121620610Y-139338986I761986J-14D01*
G01*
X185216800Y-95758000D02*
X185216800Y-89357200D01*
X134416800Y-95758000D02*
X134416800Y-89357200D01*
X137769600Y-89357200D02*
X139496800Y-89357200D01*
X175056800Y-95758000D02*
X175056800Y-89357200D01*
X205232000Y-139344400D02*
X121620610Y-139338986D01*
X193649600Y-89357200D02*
X195376800Y-89357200D01*
X154736862Y-95758000D02*
G75*
G03*
X158090368Y-95707200I1677138J0D01*
G01*
X158089600Y-89357200D02*
X159816800Y-89357200D01*
X139496862Y-95758000D02*
G75*
G03*
X142850368Y-95707200I1677138J0D01*
G01*
X185216862Y-95758000D02*
G75*
G03*
X188570368Y-95707200I1677138J0D01*
G01*
X158090368Y-95707200D02*
X158089600Y-89357200D01*
X169976800Y-95758000D02*
X169976800Y-89357200D01*
X178410368Y-95707200D02*
X178409600Y-89357200D01*
X199390000Y-102108000D02*
X199390000Y-120650000D01*
M02*
