M48
; DRILL file {KiCad (6.0.10)} date Fri Jan 13 11:07:09 2023
; FORMAT={-:-/ absolute / inch / decimal}
; #@! TF.CreationDate,2023-01-13T11:07:09+01:00
; #@! TF.GenerationSoftware,Kicad,Pcbnew,(6.0.10)
; #@! TF.FileFunction,Plated,1,2,PTH
FMAT,2
INCH
; #@! TA.AperFunction,Plated,PTH,ViaDrill
T1C0.0157
; #@! TA.AperFunction,Plated,PTH,ComponentDrill
T2C0.0315
; #@! TA.AperFunction,Plated,PTH,ComponentDrill
T3C0.0512
%
G90
G05
T1
X4.858Y-3.882
X5.058Y-3.882
X5.258Y-3.882
X5.458Y-3.882
X5.658Y-3.882
X5.858Y-3.882
X6.058Y-3.882
X6.26Y-3.88
X6.458Y-3.882
X6.658Y-3.882
X6.858Y-3.882
X7.058Y-3.882
X7.258Y-3.882
X7.458Y-3.882
X7.658Y-3.882
X7.858Y-3.882
T2
X4.9129Y-4.3096
X4.9129Y-4.408
X4.9129Y-4.5064
X4.9129Y-5.0476
X4.9129Y-5.146
X4.9129Y-5.2444
X5.0389Y-4.3096
X5.0389Y-4.408
X5.0389Y-4.5064
X5.0389Y-5.0476
X5.0389Y-5.146
X5.0389Y-5.2444
X5.2673Y-4.3096
X5.2673Y-4.408
X5.2673Y-4.5064
X5.2673Y-5.0476
X5.2673Y-5.146
X5.2673Y-5.2444
X5.3933Y-4.3096
X5.3933Y-4.408
X5.3933Y-4.5064
X5.3933Y-5.0476
X5.3933Y-5.146
X5.3933Y-5.2444
X5.6217Y-4.3096
X5.6217Y-4.408
X5.6217Y-4.5064
X5.6217Y-5.0476
X5.6217Y-5.146
X5.6217Y-5.2444
X5.7477Y-4.3096
X5.7477Y-4.408
X5.7477Y-4.5064
X5.7477Y-5.0476
X5.7477Y-5.146
X5.7477Y-5.2444
X5.976Y-4.3096
X5.976Y-4.408
X5.976Y-4.5064
X5.976Y-5.0476
X5.976Y-5.146
X5.976Y-5.2444
X6.102Y-4.3096
X6.102Y-4.408
X6.102Y-4.5064
X6.102Y-5.0476
X6.102Y-5.146
X6.102Y-5.2444
X6.3303Y-4.3096
X6.3303Y-4.408
X6.3303Y-4.5064
X6.3303Y-5.0476
X6.3303Y-5.146
X6.3303Y-5.2444
X6.4563Y-4.3096
X6.4563Y-4.408
X6.4563Y-4.5064
X6.4563Y-5.0476
X6.4563Y-5.146
X6.4563Y-5.2444
X6.6847Y-4.3096
X6.6847Y-4.408
X6.6847Y-4.5064
X6.6847Y-5.0476
X6.6847Y-5.146
X6.6847Y-5.2444
X6.8106Y-4.3096
X6.8106Y-4.408
X6.8106Y-4.5064
X6.8106Y-5.0476
X6.8106Y-5.146
X6.8106Y-5.2444
X7.039Y-4.3096
X7.039Y-4.408
X7.039Y-4.5064
X7.039Y-5.0476
X7.039Y-5.146
X7.039Y-5.2444
X7.165Y-4.3096
X7.165Y-4.408
X7.165Y-4.5064
X7.165Y-5.0476
X7.165Y-5.146
X7.165Y-5.2444
X7.3933Y-4.3096
X7.3933Y-4.408
X7.3933Y-4.5064
X7.3933Y-5.0476
X7.3933Y-5.146
X7.3933Y-5.2444
X7.5193Y-4.3096
X7.5193Y-4.408
X7.5193Y-4.5064
X7.5193Y-5.0476
X7.5193Y-5.146
X7.5193Y-5.2444
T3
X7.901Y-5.0329
X7.901Y-5.2329
T0
M30
