%TF.GenerationSoftware,KiCad,Pcbnew,(6.0.10)*%
%TF.CreationDate,2023-01-13T11:07:08+01:00*%
%TF.ProjectId,SiemensSimaticS7ExpansionBoard,5369656d-656e-4735-9369-6d6174696353,rev?*%
%TF.SameCoordinates,Original*%
%TF.FileFunction,Copper,L1,Top*%
%TF.FilePolarity,Positive*%
%FSLAX46Y46*%
G04 Gerber Fmt 4.6, Leading zero omitted, Abs format (unit mm)*
G04 Created by KiCad (PCBNEW (6.0.10)) date 2023-01-13 11:07:08*
%MOMM*%
%LPD*%
G01*
G04 APERTURE LIST*
%TA.AperFunction,ComponentPad*%
%ADD10C,1.562000*%
%TD*%
%TA.AperFunction,ComponentPad*%
%ADD11R,2.600000X2.600000*%
%TD*%
%TA.AperFunction,ComponentPad*%
%ADD12C,2.600000*%
%TD*%
%TA.AperFunction,SMDPad,CuDef*%
%ADD13R,1.600000X6.500000*%
%TD*%
%TA.AperFunction,ViaPad*%
%ADD14C,0.800000*%
%TD*%
%TA.AperFunction,Conductor*%
%ADD15C,0.700000*%
%TD*%
%TA.AperFunction,Conductor*%
%ADD16C,1.200000*%
%TD*%
G04 APERTURE END LIST*
D10*
%TO.P,SW16,1,A*%
%TO.N,Net-(J2-Pad16)*%
X190990400Y-128208400D03*
X187790400Y-128208400D03*
%TO.P,SW16,2,B*%
%TO.N,VCC*%
X190990400Y-130708400D03*
X187790400Y-130708400D03*
%TO.P,SW16,3,C*%
%TO.N,unconnected-(SW16-Pad3)*%
X190990400Y-133208400D03*
X187790400Y-133208400D03*
%TD*%
%TO.P,SW15,1,A*%
%TO.N,Net-(J2-Pad15)*%
X181990400Y-128208400D03*
X178790400Y-128208400D03*
%TO.P,SW15,2,B*%
%TO.N,VCC*%
X181990400Y-130708400D03*
X178790400Y-130708400D03*
%TO.P,SW15,3,C*%
%TO.N,unconnected-(SW15-Pad3)*%
X181990400Y-133208400D03*
X178790400Y-133208400D03*
%TD*%
%TO.P,SW14,1,A*%
%TO.N,Net-(J2-Pad14)*%
X172990400Y-128208400D03*
X169790400Y-128208400D03*
%TO.P,SW14,2,B*%
%TO.N,VCC*%
X172990400Y-130708400D03*
X169790400Y-130708400D03*
%TO.P,SW14,3,C*%
%TO.N,unconnected-(SW14-Pad3)*%
X172990400Y-133208400D03*
X169790400Y-133208400D03*
%TD*%
%TO.P,SW13,1,A*%
%TO.N,Net-(J2-Pad13)*%
X163990400Y-128208400D03*
X160790400Y-128208400D03*
%TO.P,SW13,2,B*%
%TO.N,VCC*%
X163990400Y-130708400D03*
X160790400Y-130708400D03*
%TO.P,SW13,3,C*%
%TO.N,unconnected-(SW13-Pad3)*%
X163990400Y-133208400D03*
X160790400Y-133208400D03*
%TD*%
%TO.P,SW12,1,A*%
%TO.N,Net-(J2-Pad12)*%
X154990400Y-128208400D03*
X151790400Y-128208400D03*
%TO.P,SW12,2,B*%
%TO.N,VCC*%
X154990400Y-130708400D03*
X151790400Y-130708400D03*
%TO.P,SW12,3,C*%
%TO.N,unconnected-(SW12-Pad3)*%
X154990400Y-133208400D03*
X151790400Y-133208400D03*
%TD*%
%TO.P,SW11,1,A*%
%TO.N,Net-(J2-Pad11)*%
X145990400Y-128208400D03*
X142790400Y-128208400D03*
%TO.P,SW11,2,B*%
%TO.N,VCC*%
X145990400Y-130708400D03*
X142790400Y-130708400D03*
%TO.P,SW11,3,C*%
%TO.N,unconnected-(SW11-Pad3)*%
X145990400Y-133208400D03*
X142790400Y-133208400D03*
%TD*%
%TO.P,SW10,1,A*%
%TO.N,Net-(J2-Pad10)*%
X136990400Y-128208400D03*
X133790400Y-128208400D03*
%TO.P,SW10,2,B*%
%TO.N,VCC*%
X136990400Y-130708400D03*
X133790400Y-130708400D03*
%TO.P,SW10,3,C*%
%TO.N,unconnected-(SW10-Pad3)*%
X136990400Y-133208400D03*
X133790400Y-133208400D03*
%TD*%
%TO.P,SW9,1,A*%
%TO.N,Net-(J2-Pad9)*%
X127987600Y-128208400D03*
X124787600Y-128208400D03*
%TO.P,SW9,2,B*%
%TO.N,VCC*%
X127987600Y-130708400D03*
X124787600Y-130708400D03*
%TO.P,SW9,3,C*%
%TO.N,unconnected-(SW9-Pad3)*%
X127987600Y-133208400D03*
X124787600Y-133208400D03*
%TD*%
%TO.P,SW8,1,A*%
%TO.N,Net-(J2-Pad8)*%
X190990400Y-109463200D03*
X187790400Y-109463200D03*
%TO.P,SW8,2,B*%
%TO.N,VCC*%
X190990400Y-111963200D03*
X187790400Y-111963200D03*
%TO.P,SW8,3,C*%
%TO.N,unconnected-(SW8-Pad3)*%
X190990400Y-114463200D03*
X187790400Y-114463200D03*
%TD*%
%TO.P,SW7,1,A*%
%TO.N,Net-(J2-Pad7)*%
X181990400Y-109463200D03*
X178790400Y-109463200D03*
%TO.P,SW7,2,B*%
%TO.N,VCC*%
X181990400Y-111963200D03*
X178790400Y-111963200D03*
%TO.P,SW7,3,C*%
%TO.N,unconnected-(SW7-Pad3)*%
X181990400Y-114463200D03*
X178790400Y-114463200D03*
%TD*%
%TO.P,SW6,1,A*%
%TO.N,Net-(J2-Pad6)*%
X172990400Y-109463200D03*
X169790400Y-109463200D03*
%TO.P,SW6,2,B*%
%TO.N,VCC*%
X172990400Y-111963200D03*
X169790400Y-111963200D03*
%TO.P,SW6,3,C*%
%TO.N,unconnected-(SW6-Pad3)*%
X172990400Y-114463200D03*
X169790400Y-114463200D03*
%TD*%
%TO.P,SW5,1,A*%
%TO.N,Net-(J2-Pad5)*%
X163990400Y-109463200D03*
X160790400Y-109463200D03*
%TO.P,SW5,2,B*%
%TO.N,VCC*%
X163990400Y-111963200D03*
X160790400Y-111963200D03*
%TO.P,SW5,3,C*%
%TO.N,unconnected-(SW5-Pad3)*%
X163990400Y-114463200D03*
X160790400Y-114463200D03*
%TD*%
%TO.P,SW4,1,A*%
%TO.N,Net-(J2-Pad4)*%
X154990400Y-109463200D03*
X151790400Y-109463200D03*
%TO.P,SW4,2,B*%
%TO.N,VCC*%
X154990400Y-111963200D03*
X151790400Y-111963200D03*
%TO.P,SW4,3,C*%
%TO.N,unconnected-(SW4-Pad3)*%
X154990400Y-114463200D03*
X151790400Y-114463200D03*
%TD*%
%TO.P,SW3,1,A*%
%TO.N,Net-(J2-Pad3)*%
X145990400Y-109463200D03*
X142790400Y-109463200D03*
%TO.P,SW3,2,B*%
%TO.N,VCC*%
X145990400Y-111963200D03*
X142790400Y-111963200D03*
%TO.P,SW3,3,C*%
%TO.N,unconnected-(SW3-Pad3)*%
X145990400Y-114463200D03*
X142790400Y-114463200D03*
%TD*%
%TO.P,SW2,1,A*%
%TO.N,Net-(J2-Pad2)*%
X136990400Y-109463200D03*
X133790400Y-109463200D03*
%TO.P,SW2,2,B*%
%TO.N,VCC*%
X136990400Y-111963200D03*
X133790400Y-111963200D03*
%TO.P,SW2,3,C*%
%TO.N,unconnected-(SW2-Pad3)*%
X136990400Y-114463200D03*
X133790400Y-114463200D03*
%TD*%
%TO.P,SW1,1,A*%
%TO.N,Net-(J2-Pad1)*%
X127987600Y-109463200D03*
X124787600Y-109463200D03*
%TO.P,SW1,2,B*%
%TO.N,VCC*%
X127987600Y-111963200D03*
X124787600Y-111963200D03*
%TO.P,SW1,3,C*%
%TO.N,unconnected-(SW1-Pad3)*%
X127987600Y-114463200D03*
X124787600Y-114463200D03*
%TD*%
D11*
%TO.P,J1,1,Pin_1*%
%TO.N,VCC*%
X200685000Y-132915000D03*
D12*
%TO.P,J1,2,Pin_2*%
X200685000Y-127835000D03*
%TD*%
D13*
%TO.P,J2,1,Pin_1*%
%TO.N,Net-(J2-Pad1)*%
X123393200Y-92659200D03*
%TO.P,J2,2,Pin_2*%
%TO.N,Net-(J2-Pad2)*%
X128473200Y-92659200D03*
%TO.P,J2,3,Pin_3*%
%TO.N,Net-(J2-Pad3)*%
X133553200Y-92659200D03*
%TO.P,J2,4,Pin_4*%
%TO.N,Net-(J2-Pad4)*%
X138633200Y-92659200D03*
%TO.P,J2,5,Pin_5*%
%TO.N,Net-(J2-Pad5)*%
X143713200Y-92659200D03*
%TO.P,J2,6,Pin_6*%
%TO.N,Net-(J2-Pad6)*%
X148793200Y-92659200D03*
%TO.P,J2,7,Pin_7*%
%TO.N,Net-(J2-Pad7)*%
X153873200Y-92659200D03*
%TO.P,J2,8,Pin_8*%
%TO.N,Net-(J2-Pad8)*%
X158953200Y-92659200D03*
%TO.P,J2,9,Pin_9*%
%TO.N,Net-(J2-Pad9)*%
X164033200Y-92659200D03*
%TO.P,J2,10,Pin_10*%
%TO.N,Net-(J2-Pad10)*%
X169113200Y-92659200D03*
%TO.P,J2,11,Pin_11*%
%TO.N,Net-(J2-Pad11)*%
X174193200Y-92659200D03*
%TO.P,J2,12,Pin_12*%
%TO.N,Net-(J2-Pad12)*%
X179273200Y-92659200D03*
%TO.P,J2,13,Pin_13*%
%TO.N,Net-(J2-Pad13)*%
X184353200Y-92659200D03*
%TO.P,J2,14,Pin_14*%
%TO.N,Net-(J2-Pad14)*%
X189433200Y-92659200D03*
%TO.P,J2,15,Pin_15*%
%TO.N,Net-(J2-Pad15)*%
X194513200Y-92659200D03*
%TO.P,J2,16,Pin_16*%
%TO.N,Net-(J2-Pad16)*%
X199593200Y-92659200D03*
%TD*%
D14*
%TO.N,Net-(J2-Pad9)*%
X164033200Y-98602800D03*
%TO.N,Net-(J2-Pad10)*%
X169113200Y-98602800D03*
%TO.N,Net-(J2-Pad11)*%
X174193200Y-98602800D03*
%TO.N,Net-(J2-Pad16)*%
X199593200Y-98602800D03*
%TO.N,Net-(J2-Pad15)*%
X194513200Y-98602800D03*
%TO.N,Net-(J2-Pad14)*%
X189433200Y-98602800D03*
%TO.N,Net-(J2-Pad13)*%
X184353200Y-98602800D03*
%TO.N,Net-(J2-Pad12)*%
X179273200Y-98602800D03*
%TO.N,Net-(J2-Pad8)*%
X159004000Y-98552000D03*
%TO.N,Net-(J2-Pad7)*%
X153873200Y-98602800D03*
%TO.N,Net-(J2-Pad6)*%
X148793200Y-98602800D03*
%TO.N,Net-(J2-Pad5)*%
X143713200Y-98602800D03*
%TO.N,Net-(J2-Pad4)*%
X138633200Y-98602800D03*
%TO.N,Net-(J2-Pad3)*%
X133553200Y-98602800D03*
%TO.N,Net-(J2-Pad2)*%
X128473200Y-98602800D03*
%TO.N,Net-(J2-Pad1)*%
X123393200Y-98602800D03*
%TD*%
D15*
%TO.N,Net-(J2-Pad11)*%
X174193200Y-98602800D02*
X174193200Y-92659200D01*
%TO.N,Net-(J2-Pad10)*%
X169113200Y-98602800D02*
X169113200Y-92659200D01*
%TO.N,Net-(J2-Pad9)*%
X164033200Y-98602800D02*
X164033200Y-92659200D01*
%TO.N,Net-(J2-Pad8)*%
X162560000Y-99568000D02*
X160020000Y-99568000D01*
X165100000Y-102108000D02*
X162560000Y-99568000D01*
X160020000Y-99568000D02*
X159004000Y-98552000D01*
X182975200Y-104648000D02*
X177800000Y-104648000D01*
X177800000Y-104648000D02*
X175260000Y-102108000D01*
X187790400Y-109463200D02*
X182975200Y-104648000D01*
X175260000Y-102108000D02*
X165100000Y-102108000D01*
%TO.N,Net-(J2-Pad12)*%
X179273200Y-98602800D02*
X179273200Y-92659200D01*
%TO.N,Net-(J2-Pad13)*%
X184353200Y-98602800D02*
X184353200Y-92659200D01*
%TO.N,Net-(J2-Pad14)*%
X189433200Y-98602800D02*
X189433200Y-92659200D01*
%TO.N,Net-(J2-Pad15)*%
X194513200Y-98602800D02*
X194513200Y-92659200D01*
%TO.N,Net-(J2-Pad16)*%
X199593200Y-98602800D02*
X199593200Y-92659200D01*
%TO.N,Net-(J2-Pad7)*%
X153873200Y-98602800D02*
X153873200Y-92659200D01*
%TO.N,Net-(J2-Pad6)*%
X148793200Y-98602800D02*
X148793200Y-100025200D01*
%TO.N,Net-(J2-Pad5)*%
X143713200Y-98602800D02*
X143713200Y-102057200D01*
%TO.N,Net-(J2-Pad4)*%
X138633200Y-98602800D02*
X138633200Y-101549200D01*
%TO.N,Net-(J2-Pad3)*%
X133553200Y-98602800D02*
X133553200Y-92659200D01*
%TO.N,Net-(J2-Pad2)*%
X128473200Y-98602800D02*
X128473200Y-104146000D01*
%TO.N,Net-(J2-Pad1)*%
X123393200Y-98602800D02*
X123393200Y-108068800D01*
D16*
%TO.N,VCC*%
X195224400Y-130708400D02*
X190990400Y-130708400D01*
X197431000Y-132915000D02*
X195224400Y-130708400D01*
X200685000Y-132915000D02*
X197431000Y-132915000D01*
X190990400Y-111963200D02*
X124787600Y-111963200D01*
X190990400Y-111963200D02*
X193915000Y-111963200D01*
X193915000Y-111963200D02*
X196470000Y-114518200D01*
X200685000Y-132915000D02*
X200685000Y-127835000D01*
X122428000Y-113284000D02*
X123748800Y-111963200D01*
X122428000Y-113284000D02*
X122428000Y-129540000D01*
X124787600Y-111963200D02*
X123748800Y-111963200D01*
X123596400Y-130708400D02*
X122428000Y-129540000D01*
X124787600Y-130708400D02*
X123596400Y-130708400D01*
X190990400Y-130708400D02*
X124787600Y-130708400D01*
X196470000Y-123620000D02*
X200685000Y-127835000D01*
X196470000Y-114518200D02*
X196470000Y-123620000D01*
D15*
%TO.N,Net-(J2-Pad8)*%
X187790400Y-109463200D02*
X190990400Y-109463200D01*
X158953200Y-98501200D02*
X159004000Y-98552000D01*
X158953200Y-92659200D02*
X158953200Y-98501200D01*
%TO.N,Net-(J2-Pad7)*%
X160020000Y-102108000D02*
X155448000Y-102108000D01*
X162560000Y-104648000D02*
X160020000Y-102108000D01*
X155448000Y-102108000D02*
X153873200Y-100533200D01*
X153873200Y-100533200D02*
X153873200Y-98602800D01*
X173975200Y-104648000D02*
X162560000Y-104648000D01*
X178790400Y-109463200D02*
X173975200Y-104648000D01*
%TO.N,Net-(J2-Pad6)*%
X161036000Y-106680000D02*
X167007200Y-106680000D01*
X153416000Y-104648000D02*
X159004000Y-104648000D01*
X148793200Y-100025200D02*
X153416000Y-104648000D01*
X167007200Y-106680000D02*
X169790400Y-109463200D01*
X148793200Y-92659200D02*
X148793200Y-98602800D01*
X159004000Y-104648000D02*
X161036000Y-106680000D01*
%TO.N,Net-(J2-Pad5)*%
X149352000Y-104140000D02*
X151892000Y-106680000D01*
X158007200Y-106680000D02*
X160790400Y-109463200D01*
X145796000Y-104140000D02*
X149352000Y-104140000D01*
X143713200Y-102057200D02*
X145796000Y-104140000D01*
X143713200Y-92659200D02*
X143713200Y-98602800D01*
X151892000Y-106680000D02*
X158007200Y-106680000D01*
%TO.N,Net-(J2-Pad4)*%
X149007200Y-106680000D02*
X150957600Y-108630400D01*
X143764000Y-106680000D02*
X149007200Y-106680000D01*
X150957600Y-108630400D02*
X151790400Y-109463200D01*
X138633200Y-101549200D02*
X143764000Y-106680000D01*
X138633200Y-92659200D02*
X138633200Y-98602800D01*
%TO.N,Net-(J2-Pad3)*%
X140007200Y-106680000D02*
X135636000Y-106680000D01*
X135636000Y-106680000D02*
X133553200Y-104597200D01*
X133553200Y-104597200D02*
X133553200Y-98602800D01*
X142790400Y-109463200D02*
X140007200Y-106680000D01*
%TO.N,Net-(J2-Pad7)*%
X181990400Y-109463200D02*
X178790400Y-109463200D01*
%TO.N,Net-(J2-Pad6)*%
X172990400Y-109463200D02*
X169790400Y-109463200D01*
%TO.N,Net-(J2-Pad5)*%
X160790400Y-109463200D02*
X163990400Y-109463200D01*
%TO.N,Net-(J2-Pad4)*%
X154990400Y-109463200D02*
X151790400Y-109463200D01*
%TO.N,Net-(J2-Pad3)*%
X145990400Y-109463200D02*
X142790400Y-109463200D01*
%TO.N,Net-(J2-Pad2)*%
X133790400Y-109463200D02*
X136990400Y-109463200D01*
X128473200Y-104146000D02*
X133790400Y-109463200D01*
X128473200Y-92659200D02*
X128473200Y-98602800D01*
%TO.N,Net-(J2-Pad1)*%
X127987600Y-109463200D02*
X124787600Y-109463200D01*
X123393200Y-108068800D02*
X124787600Y-109463200D01*
X123393200Y-92659200D02*
X123393200Y-98602800D01*
%TD*%
M02*
