%TF.GenerationSoftware,KiCad,Pcbnew,(6.0.10)*%
%TF.CreationDate,2023-01-16T10:01:34+01:00*%
%TF.ProjectId,SiemensET200BExpansionBoard,5369656d-656e-4734-9554-323030424578,rev?*%
%TF.SameCoordinates,Original*%
%TF.FileFunction,Soldermask,Bot*%
%TF.FilePolarity,Negative*%
%FSLAX46Y46*%
G04 Gerber Fmt 4.6, Leading zero omitted, Abs format (unit mm)*
G04 Created by KiCad (PCBNEW (6.0.10)) date 2023-01-16 10:01:34*
%MOMM*%
%LPD*%
G01*
G04 APERTURE LIST*
%ADD10C,1.562000*%
%ADD11R,2.600000X2.600000*%
%ADD12C,2.600000*%
%ADD13R,1.600000X6.500000*%
G04 APERTURE END LIST*
D10*
%TO.C,SW2*%
X133790400Y-109463200D03*
X136990400Y-109463200D03*
X133790400Y-111963200D03*
X136990400Y-111963200D03*
X133790400Y-114463200D03*
X136990400Y-114463200D03*
%TD*%
%TO.C,SW16*%
X187790400Y-128208400D03*
X190990400Y-128208400D03*
X190990400Y-130708400D03*
X187790400Y-130708400D03*
X187790400Y-133208400D03*
X190990400Y-133208400D03*
%TD*%
%TO.C,SW11*%
X142790400Y-128208400D03*
X145990400Y-128208400D03*
X145990400Y-130708400D03*
X142790400Y-130708400D03*
X142790400Y-133208400D03*
X145990400Y-133208400D03*
%TD*%
D11*
%TO.C,J1*%
X200685000Y-132915000D03*
D12*
X200685000Y-127835000D03*
%TD*%
D10*
%TO.C,SW13*%
X160790400Y-128208400D03*
X163990400Y-128208400D03*
X160790400Y-130708400D03*
X163990400Y-130708400D03*
X163990400Y-133208400D03*
X160790400Y-133208400D03*
%TD*%
%TO.C,SW6*%
X169790400Y-109463200D03*
X172990400Y-109463200D03*
X169790400Y-111963200D03*
X172990400Y-111963200D03*
X169790400Y-114463200D03*
X172990400Y-114463200D03*
%TD*%
%TO.C,SW10*%
X133790400Y-128208400D03*
X136990400Y-128208400D03*
X136990400Y-130708400D03*
X133790400Y-130708400D03*
X133790400Y-133208400D03*
X136990400Y-133208400D03*
%TD*%
%TO.C,SW15*%
X181990400Y-128208400D03*
X178790400Y-128208400D03*
X178790400Y-130708400D03*
X181990400Y-130708400D03*
X181990400Y-133208400D03*
X178790400Y-133208400D03*
%TD*%
%TO.C,SW12*%
X154990400Y-128208400D03*
X151790400Y-128208400D03*
X154990400Y-130708400D03*
X151790400Y-130708400D03*
X151790400Y-133208400D03*
X154990400Y-133208400D03*
%TD*%
D13*
%TO.C,J2*%
X123393200Y-92659200D03*
X128473200Y-92659200D03*
X133553200Y-92659200D03*
X138633200Y-92659200D03*
X143713200Y-92659200D03*
X148793200Y-92659200D03*
X153873200Y-92659200D03*
X158953200Y-92659200D03*
X164033200Y-92659200D03*
X169113200Y-92659200D03*
X174193200Y-92659200D03*
X179273200Y-92659200D03*
X184353200Y-92659200D03*
X189433200Y-92659200D03*
X194513200Y-92659200D03*
X199593200Y-92659200D03*
%TD*%
D10*
%TO.C,SW1*%
X124787600Y-109463200D03*
X127987600Y-109463200D03*
X127987600Y-111963200D03*
X124787600Y-111963200D03*
X124787600Y-114463200D03*
X127987600Y-114463200D03*
%TD*%
%TO.C,SW8*%
X187790400Y-109463200D03*
X190990400Y-109463200D03*
X190990400Y-111963200D03*
X187790400Y-111963200D03*
X187790400Y-114463200D03*
X190990400Y-114463200D03*
%TD*%
%TO.C,SW14*%
X172990400Y-128208400D03*
X169790400Y-128208400D03*
X169790400Y-130708400D03*
X172990400Y-130708400D03*
X172990400Y-133208400D03*
X169790400Y-133208400D03*
%TD*%
%TO.C,SW4*%
X154990400Y-109463200D03*
X151790400Y-109463200D03*
X151790400Y-111963200D03*
X154990400Y-111963200D03*
X151790400Y-114463200D03*
X154990400Y-114463200D03*
%TD*%
%TO.C,SW5*%
X160790400Y-109463200D03*
X163990400Y-109463200D03*
X163990400Y-111963200D03*
X160790400Y-111963200D03*
X163990400Y-114463200D03*
X160790400Y-114463200D03*
%TD*%
%TO.C,SW3*%
X145990400Y-109463200D03*
X142790400Y-109463200D03*
X145990400Y-111963200D03*
X142790400Y-111963200D03*
X145990400Y-114463200D03*
X142790400Y-114463200D03*
%TD*%
%TO.C,SW9*%
X124787600Y-128208400D03*
X127987600Y-128208400D03*
X124787600Y-130708400D03*
X127987600Y-130708400D03*
X124787600Y-133208400D03*
X127987600Y-133208400D03*
%TD*%
%TO.C,SW7*%
X181990400Y-109463200D03*
X178790400Y-109463200D03*
X178790400Y-111963200D03*
X181990400Y-111963200D03*
X178790400Y-114463200D03*
X181990400Y-114463200D03*
%TD*%
M02*
